<?xml version="1.0" encoding="UTF-8"?> <svg xmlns="http://www.w3.org/2000/svg" viewBox="0 0 221.513 25.822" width="221.513" height="25.822"><path fill="#FFFFFF" d="m6.855,12.357c2.941-2.66,5.063-4.641,6.363-5.941,1.312-1.313,2.391-2.391,3.234-3.234.855-.855,1.365-1.406,1.529-1.652V.387l.176-.141c.891.047,1.863.07,2.918.07.234,0,1.16-.018,2.777-.053l.176.158v.826l-.141.141c-1.09,0-1.834.064-2.233.193-.398.117-.984.492-1.758,1.125-.762.621-1.641,1.389-2.637,2.303l-7.119,6.504,10.582,9.791c1.699,1.582,2.648,2.443,2.848,2.584.211.141.639.223,1.283.246l.123.141v.738l-.123.141c-.68-.047-1.383-.07-2.109-.07-.434,0-1.383.023-2.848.07-1.066-1.008-2.004-1.898-2.812-2.672-.797-.773-4.207-3.914-10.23-9.422v3.744l.018,3.428c.012,1.324.047,2.18.105,2.566.059.387.141.645.246.774.117.129.334.24.65.334.316.082,1.096.146,2.338.193l.141.105v.879l-.141.141c-.059,0-1.09-.035-3.094-.105-.832-.024-1.482-.035-1.951-.035-.363,0-2.039.047-5.027.141l-.141-.141v-.879l.141-.105c1.09-.047,1.816-.105,2.18-.176.363-.07.604-.158.721-.264.129-.117.229-.357.299-.721.082-.363.129-1.172.141-2.426l.018-3.709v-8.139l-.035-3.428c-.012-1.336-.047-2.197-.105-2.584-.047-.387-.129-.645-.246-.773-.105-.129-.316-.234-.633-.316s-1.096-.146-2.338-.193l-.141-.123V.369l.141-.123,2.197.07c1.441.047,2.385.07,2.83.07.398,0,2.08-.047,5.045-.141l.141.123v.879l-.141.123c-.809.023-1.436.059-1.881.105-.434.047-.75.135-.949.264-.199.129-.334.434-.404.914-.059.469-.088,1.125-.088,1.969l-.035,4.043v3.691Zm26.378,12.867l-.158-.141v-.914l.158-.141c.855-.012,1.406-.053,1.652-.123.246-.082.463-.234.65-.457.199-.234.592-.984,1.178-2.25l1.846-4.008,4.781-10.828c.902-2.121,1.799-4.242,2.69-6.363h1.142l7.506,17.648,1.002,2.355c.293.668.627,1.395,1.002,2.18.387.785.65,1.248.791,1.389.152.141.334.252.545.334.223.07.709.111,1.459.123l.141.141v.914l-.141.141c-1.242-.105-2.361-.158-3.357-.158-1.945.059-3.891.111-5.836.158l-.141-.141v-.914l.141-.141c1.312-.023,2.133-.076,2.461-.158.328-.094.492-.299.492-.615,0-.258-.082-.598-.246-1.02l-2.162-5.361h-10.178l-1.916,4.5c-.34.809-.51,1.4-.51,1.775,0,.293.158.51.475.65s1.113.217,2.391.228l.158.141v.914l-.141.141c-1.512-.094-2.836-.141-3.973-.141-1.289,0-2.59.047-3.902.141Zm8.016-9.861h8.894l-4.412-10.6-4.482,10.6ZM100.744.299l.158.141v.861l-.14.123c-1.289.035-2.092.1-2.408.193-.305.094-.521.252-.65.475-.129.211-.205.633-.229,1.266-.012.633-.041,2.42-.088,5.361v8.104c0,1.172.018,2.496.053,3.973.035,1.477.105,2.338.211,2.584.117.234.322.41.615.527.293.105,1.125.176,2.496.211l.14.123v.861l-.158.141c-1.91-.105-3.574-.158-4.992-.158-.961,0-2.596.053-4.904.158l-.158-.141v-.844l.141-.141c1.289-.035,2.086-.1,2.391-.193.316-.094.539-.246.668-.457.129-.223.205-.656.229-1.301.023-.645.053-2.426.088-5.344V3.92l-6.064,12.691c-1.523,3.176-2.854,6.164-3.99,8.965h-.686c-.656-1.512-1.195-2.719-1.617-3.621l-8.402-17.455v12.287c0,1.149.012,2.473.035,3.973.035,1.488.111,2.35.229,2.584.117.234.322.41.615.527.293.117,1.125.188,2.496.211l.141.141v.844l-.158.158-1.125-.053c-1.16-.059-2.156-.088-2.988-.088-.375,0-1.775.047-4.201.141l-.141-.141v-.844l.141-.158c1.289-.023,2.086-.082,2.391-.176.305-.094.521-.252.65-.475.141-.223.217-.639.229-1.248.023-.609.053-2.408.088-5.396v-8.051c0-1.066-.018-2.361-.053-3.885-.023-1.535-.094-2.42-.211-2.654-.105-.246-.305-.428-.598-.545-.293-.117-1.125-.188-2.496-.211l-.141-.141V.457l.158-.158c.809.059,1.898.088,3.27.088,1.289,0,2.414-.029,3.375-.088.984,2.273,1.928,4.33,2.83,6.17l6.662,13.676,6.012-12.533c1.629-3.387,2.725-5.824,3.287-7.312,1.125.059,2.232.088,3.322.088.984,0,2.144-.029,3.48-.088Zm9.239-.053c2.953.094,4.834.141,5.643.141,1.101,0,2.338-.029,3.709-.088,1.453-.047,2.349-.07,2.689-.07,1.641,0,2.994.17,4.061.51,1.078.34,1.969.961,2.672,1.863.703.902,1.054,1.992,1.054,3.27,0,1.055-.246,2.074-.738,3.059-.492.984-1.178,1.822-2.057,2.514-.878.691-1.769,1.189-2.671,1.494-.903.293-1.84.439-2.813.439-.726,0-1.535-.082-2.426-.246l-.298-1.072.158-.176c.879.199,1.593.299,2.144.299,1.535,0,2.766-.504,3.692-1.512.937-1.02,1.406-2.32,1.406-3.902,0-1.594-.486-2.865-1.459-3.814-.961-.949-2.42-1.424-4.377-1.424-1.066,0-2.238.199-3.516.598-.105.902-.158,3.082-.158,6.539v8.139l.018,3.428c.011,1.324.047,2.18.105,2.566.059.387.141.645.246.774.117.129.334.24.651.334.316.082,1.095.146,2.338.193l.14.105v.879l-.14.141c-2.989-.094-4.67-.141-5.045-.141-.399,0-2.075.047-5.028.141l-.14-.141v-.879l.14-.105c1.09-.047,1.817-.105,2.18-.176.363-.07.603-.158.721-.264.129-.117.228-.357.299-.721.082-.363.128-1.172.14-2.426l.018-3.709v-8.139l-.035-3.428c-.012-1.336-.047-2.197-.106-2.584-.047-.387-.129-.645-.246-.773-.105-.129-.316-.234-.633-.316-.316-.082-1.096-.146-2.338-.193l-.14-.123V.369l.14-.123Zm28.962,0l2.197.07c1.442.047,2.385.07,2.83.07.399,0,2.08-.047,5.045-.141l.141.123v.879l-.141.123c-.808.023-1.435.059-1.881.105-.433.047-.75.135-.949.264-.199.129-.334.434-.404.914-.059.469-.088,1.125-.088,1.969l-.035,4.043v8.139l.017,3.428c.012,1.324.047,2.18.106,2.566.059.387.141.645.246.774.117.129.334.24.65.334.317.082,1.096.146,2.338.193l.141.105v.879l-.141.141c-.058,0-1.09-.035-3.093-.105-.832-.024-1.483-.035-1.952-.035-.363,0-2.039.047-5.027.141l-.141-.141v-.879l.141-.105c1.09-.047,1.816-.105,2.18-.176.363-.07.603-.158.72-.264.129-.117.229-.357.299-.721.082-.363.129-1.172.141-2.426l.017-3.709v-8.139l-.035-3.428c-.011-1.336-.047-2.197-.105-2.584-.047-.387-.129-.645-.246-.773-.106-.129-.317-.234-.633-.316s-1.096-.146-2.338-.193l-.141-.123V.369l.141-.123Zm19.452,24.961l-.158-.158v-.809l.158-.141c.715-.012,1.283-.053,1.705-.123.434-.07.709-.188.826-.352.129-.164.211-.428.246-.791.047-.363.088-1.184.123-2.461.047-1.277.071-2.191.071-2.742V3.428c0-.598-.112-1.037-.334-1.318-.211-.293-.504-.475-.879-.545-.375-.082-1.014-.129-1.916-.141l-.141-.141V.457l.141-.158c1.617.059,2.677.088,3.181.088,1.184,0,2.157-.029,2.918-.088l5.608,7.277,8.244,10.336c.996,1.254,2.01,2.443,3.041,3.568V7.875c0-.422-.023-1.318-.07-2.689-.036-1.383-.082-2.256-.141-2.619-.059-.375-.164-.627-.316-.756-.141-.129-.416-.223-.827-.281-.398-.07-.943-.111-1.634-.123l-.141-.141V.457l.141-.158c.949.059,2.302.088,4.06.088,1.606,0,2.772-.029,3.498-.088l.158.158v.809l-.14.141c-.774.012-1.371.059-1.793.141-.422.07-.686.193-.791.369-.106.176-.182.434-.229.773-.035.34-.076,1.148-.123,2.426-.035,1.277-.052,2.197-.052,2.76v8.35l.017,4.834c.024,1.582.047,3.17.07,4.764-.585-.199-1.599-.445-3.041-.738l-1.248-1.477-3.744-4.57-11.918-14.889v13.482c0,.539.018,1.5.053,2.883.047,1.383.1,2.221.158,2.514.059.293.135.498.229.615.093.106.293.205.597.299.317.094.961.146,1.934.158l.141.141v.826l-.141.141c-.609-.082-1.594-.123-2.953-.123-1.746,0-3.276.041-4.588.123Zm36.731.018l-.158-.141v-.914l.158-.141c.856-.012,1.406-.053,1.653-.123.246-.082.462-.234.65-.457.199-.234.592-.984,1.178-2.25l1.845-4.008,4.782-10.828c.902-2.121,1.798-4.242,2.689-6.363h1.143l7.506,17.648,1.001,2.355c.293.668.627,1.395,1.002,2.18.387.785.651,1.248.791,1.389.153.141.334.252.545.334.223.07.709.111,1.459.123l.141.141v.914l-.141.141c-1.242-.105-2.361-.158-3.357-.158-1.945.059-3.891.111-5.836.158l-.141-.141v-.914l.141-.141c1.312-.023,2.133-.076,2.461-.158.328-.094.492-.299.492-.615,0-.258-.082-.598-.246-1.02l-2.162-5.361h-10.178l-1.916,4.5c-.34.809-.51,1.4-.51,1.775,0,.293.159.51.475.65.316.141,1.113.217,2.391.228l.158.141v.914l-.141.141c-1.512-.094-2.836-.141-3.972-.141-1.29,0-2.59.047-3.903.141Zm8.016-9.861h8.894l-4.412-10.6-4.482,10.6Z"></path></svg> 