<?xml version="1.0" encoding="UTF-8"?> <svg xmlns="http://www.w3.org/2000/svg" width="105" height="108" viewBox="0 0 105 108" fill="none"><ellipse cx="52.2067" cy="54.2398" rx="52.059" ry="53.7408" fill="#E9B237"></ellipse><path d="M65.7712 77.3956H40.9968" stroke="#464646" stroke-width="2" stroke-linecap="round" stroke-linejoin="round"></path><path d="M61.3474 57.943H65.4838C66.4217 57.943 67.322 58.3166 67.9856 58.9797L74.0266 65.0167L75.4157 65.2952C77.2384 65.6599 78.6386 67.1233 78.9195 68.9581L79.9039 75.3597C80.0698 76.4318 79.2403 77.3978 78.1542 77.3978H74.615" stroke="#464646" stroke-width="2" stroke-linecap="round" stroke-linejoin="round"></path><path d="M32.149 77.3955H26.8402C25.8625 77.3955 25.0706 76.6041 25.0706 75.6271V51.7534C25.0706 50.7763 25.8625 49.985 26.8402 49.985H46.3721C47.498 49.985 48.6129 49.7705 49.6569 49.3528L55.3396 47.0803C56.3858 46.6625 57.5007 46.4481 58.6266 46.4481H68.8416C70.7705 46.4481 72.5467 47.4937 73.4824 49.1759L74.9291 51.7777C75.5838 52.9559 74.7322 54.406 73.3829 54.406H61.3496V58.8271" stroke="#464646" stroke-width="2" stroke-linecap="round" stroke-linejoin="round"></path><path d="M31.2642 46.4482C31.2642 45.4712 32.0561 44.6798 33.0338 44.6798H40.1122C41.0899 44.6798 41.8818 45.4712 41.8818 46.4482" stroke="#464646" stroke-width="2" stroke-linecap="round" stroke-linejoin="round"></path><path d="M36.5732 81.8167C39.0165 81.8167 40.9972 79.8373 40.9972 77.3957C40.9972 74.954 39.0165 72.9746 36.5732 72.9746C34.1299 72.9746 32.1492 74.954 32.1492 77.3957C32.1492 79.8373 34.1299 81.8167 36.5732 81.8167Z" stroke="#464646" stroke-width="2" stroke-linecap="round" stroke-linejoin="round"></path><path d="M70.1952 81.8167C72.6385 81.8167 74.6192 79.8373 74.6192 77.3957C74.6192 74.954 72.6385 72.9746 70.1952 72.9746C67.7519 72.9746 65.7712 74.954 65.7712 77.3957C65.7712 79.8373 67.7519 81.8167 70.1952 81.8167Z" stroke="#464646" stroke-width="2" stroke-linecap="round" stroke-linejoin="round"></path><path d="M56.9234 66.785H55.1538" stroke="#464646" stroke-width="2" stroke-linecap="round" stroke-linejoin="round"></path><path d="M48.0754 77.3957V59.7115C48.0754 58.2525 49.2699 57.0588 50.7298 57.0588H54.269C55.729 57.0588 56.9234 58.2525 56.9234 59.7115V77.3957" stroke="#464646" stroke-width="2" stroke-linecap="round" stroke-linejoin="round"></path><path d="M63 62V64.6526C63 65.6297 63.7919 66.4211 64.7696 66.4211H68.3088" stroke="#464646" stroke-width="2" stroke-linecap="round" stroke-linejoin="round"></path><path d="M40.997 57.0588H32.149C31.1717 57.0588 30.3794 57.8506 30.3794 58.8273V63.2483C30.3794 64.225 31.1717 65.0167 32.149 65.0167H40.997C41.9743 65.0167 42.7666 64.225 42.7666 63.2483V58.8273C42.7666 57.8506 41.9743 57.0588 40.997 57.0588Z" stroke="#464646" stroke-width="2" stroke-linecap="round" stroke-linejoin="round"></path><path d="M78.1544 44.6223C79.2759 42.8495 79.924 40.7473 79.924 38.4947C79.924 32.1461 74.7745 27 68.4216 27C62.0687 27 56.9192 32.1461 56.9192 38.4947C56.9192 39.096 56.9656 39.6862 57.0541 40.2632" stroke="#464646" stroke-width="2" stroke-linecap="round" stroke-linejoin="round"></path></svg> 