<?xml version="1.0" encoding="UTF-8"?> <svg xmlns="http://www.w3.org/2000/svg" width="105" height="108" viewBox="0 0 105 108" fill="none"><ellipse cx="52.8268" cy="54.2398" rx="52.059" ry="53.7408" fill="#E9B237"></ellipse><path d="M59.8104 41.9137C59.8104 40.9092 58.988 40.0873 57.9828 40.0873H47.4743C45.7152 40.0873 44.276 38.6491 44.276 36.8912C44.276 35.1333 45.7152 33.6951 47.4743 33.6951H44.7329C42.4713 33.6951 40.6208 31.8459 40.6208 29.5858C40.6208 27.3256 42.4713 25.4764 44.7329 25.4764" stroke="#464646" stroke-width="2" stroke-linecap="round" stroke-linejoin="round"></path><path d="M50.6724 29.1292H53.4137C55.4241 29.1292 57.0689 30.7729 57.0689 32.7819C57.0689 34.7909 55.4241 36.4346 53.4137 36.4346H59.8103C62.5516 36.4346 64.3792 38.7404 64.3792 41.0005" stroke="#464646" stroke-width="2" stroke-linecap="round" stroke-linejoin="round"></path><path d="M62.5518 68.3959L64.5118 73.2951" stroke="#464646" stroke-width="2" stroke-linecap="round" stroke-linejoin="round"></path><path d="M42.4486 68.3959L36.9658 82.0936" stroke="#464646" stroke-width="2" stroke-linecap="round" stroke-linejoin="round"></path><path d="M66.2069 82.0936C68.7302 82.0936 70.7758 80.0494 70.7758 77.5277C70.7758 75.006 68.7302 72.9618 66.2069 72.9618C63.6835 72.9618 61.6379 75.006 61.6379 77.5277C61.6379 80.0494 63.6835 82.0936 66.2069 82.0936Z" stroke="#464646" stroke-width="2" stroke-linecap="round" stroke-linejoin="round"></path><path d="M61.6379 77.5277H38.7932" stroke="#464646" stroke-width="2" stroke-linecap="round" stroke-linejoin="round"></path><path d="M31.4829 45.5664C31.4829 57.1661 40.8926 66.5695 52.5001 66.5695C64.1075 66.5695 73.5172 57.1661 73.5172 45.5664" stroke="#464646" stroke-width="2" stroke-linecap="round" stroke-linejoin="round"></path><path d="M29.6553 45.5664H75.3447" stroke="#464646" stroke-width="2" stroke-linecap="round" stroke-linejoin="round"></path><path d="M39.4786 55.6113C38.4209 54.2439 37.5756 52.7074 36.9885 51.0477" stroke="#464646" stroke-width="2" stroke-linecap="round" stroke-linejoin="round"></path><path d="M26.914 51.9587C27.4187 51.9587 27.8278 51.5498 27.8278 51.0455C27.8278 50.5412 27.4187 50.1323 26.914 50.1323C26.4094 50.1323 26.0002 50.5412 26.0002 51.0455C26.0002 51.5498 26.4094 51.9587 26.914 51.9587Z" stroke="#464646" stroke-width="2" stroke-linecap="round" stroke-linejoin="round"></path><path d="M32.2095 51.0454H26.9141" stroke="#464646" stroke-width="2" stroke-linecap="round" stroke-linejoin="round"></path><path d="M78.0862 51.0454H72.7908" stroke="#464646" stroke-width="2" stroke-linecap="round" stroke-linejoin="round"></path><path d="M78.0862 51.9587C78.5908 51.9587 78.9999 51.5498 78.9999 51.0455C78.9999 50.5412 78.5908 50.1323 78.0862 50.1323C77.5815 50.1323 77.1724 50.5412 77.1724 51.0455C77.1724 51.5498 77.5815 51.9587 78.0862 51.9587Z" stroke="#464646" stroke-width="2" stroke-linecap="round" stroke-linejoin="round"></path></svg> 