<?xml version="1.0" encoding="UTF-8"?> <svg xmlns="http://www.w3.org/2000/svg" width="105" height="105" viewBox="0 0 105 105" fill="none"><circle cx="52.8268" cy="52.4671" r="52.059" fill="#E9B237"></circle><path d="M52.7561 54.7637C51.9096 57.3017 49.3698 58.1477 39.2109 62.3778C39.2109 62.3778 41.7507 69.9919 39.2109 78.452L52.7561 54.7637Z" stroke="#464646" stroke-width="2" stroke-linecap="round" stroke-linejoin="round"></path><path d="M52.7563 54.7637C53.6029 57.3017 56.1426 58.1477 66.3015 62.3778C66.3015 62.3778 63.7618 69.9919 66.3015 78.452L52.7563 54.7637Z" stroke="#464646" stroke-width="2" stroke-linecap="round" stroke-linejoin="round"></path><path d="M55.296 25.9993L26.5125 72.5298L39.2111 78.4519H66.3014L79.0001 72.5298L50.2165 25.9993" stroke="#464646" stroke-width="2" stroke-linecap="round" stroke-linejoin="round"></path><path d="M61.8292 44.7723L56.9889 47.9956L52.7561 43.7655L48.5232 47.9956L47.2576 47.1517" stroke="#464646" stroke-width="2" stroke-linecap="round" stroke-linejoin="round"></path><path d="M58.0665 38.6895H52.7563" stroke="#464646" stroke-width="2" stroke-linecap="round" stroke-linejoin="round"></path></svg> 