<?xml version="1.0" encoding="UTF-8"?> <svg xmlns="http://www.w3.org/2000/svg" width="105" height="105" viewBox="0 0 105 105" fill="none"><circle cx="52.5866" cy="52.4671" r="52.059" fill="#E9B237"></circle><path d="M40.1072 43.513L50.0216 27L62.4145 49.2925H68.1979L76.7821 60.7319" stroke="#464646" stroke-width="2" stroke-linecap="round" stroke-linejoin="round"></path><path d="M42.5857 39.3847L45.8905 43.513L49.1953 38.5591L51.6739 40.2104" stroke="#464646" stroke-width="2" stroke-linecap="round" stroke-linejoin="round"></path><path d="M31.845 51.7695L35.976 45.1643L43.4118 55.8977H50.8475L62.4143 68.2825H67.3715L69.7778 71.488" stroke="#464646" stroke-width="2" stroke-linecap="round" stroke-linejoin="round"></path><path d="M68.1978 49.2925V55.8977" stroke="#464646" stroke-width="2" stroke-linecap="round" stroke-linejoin="round"></path><path d="M50.8474 66.6311V74.0619" stroke="#464646" stroke-width="2" stroke-linecap="round" stroke-linejoin="round"></path><path d="M48.3691 72.4107L50.8477 69.9337L53.3263 72.4107" stroke="#464646" stroke-width="2" stroke-linecap="round" stroke-linejoin="round"></path><path d="M49.1951 68.2824L50.8475 66.6311L52.4999 68.2824" stroke="#464646" stroke-width="2" stroke-linecap="round" stroke-linejoin="round"></path><path d="M41.7595 63.3285V70.7593" stroke="#464646" stroke-width="2" stroke-linecap="round" stroke-linejoin="round"></path><path d="M39.2808 69.108L41.7594 66.6311L44.238 69.108" stroke="#464646" stroke-width="2" stroke-linecap="round" stroke-linejoin="round"></path><path d="M40.1072 64.9798L41.7596 63.3285L43.412 64.9798" stroke="#464646" stroke-width="2" stroke-linecap="round" stroke-linejoin="round"></path><path d="M60.7623 28.3602C70.8522 31.7949 78.1125 41.3477 78.1125 52.5951C78.1125 66.7302 66.6448 78.1901 52.5003 78.1901C40.5927 78.1901 30.5833 70.0699 27.7144 59.0681" stroke="#464646" stroke-width="2" stroke-linecap="round" stroke-linejoin="round"></path><path d="M26.8879 32.7794C26.8879 32.7794 30.3208 32.9941 31.0189 35.2564C31.0189 35.2564 32.6713 32.7794 35.1499 32.7794" stroke="#464646" stroke-width="2" stroke-linecap="round" stroke-linejoin="round"></path></svg> 