<?xml version="1.0" encoding="UTF-8"?> <svg xmlns="http://www.w3.org/2000/svg" width="105" height="105" viewBox="0 0 105 105" fill="none"><circle cx="52.2067" cy="52.4671" r="52.059" fill="#E9B237"></circle><path d="M32.9819 47.6079L52.3721 35.0876L71.7623 47.6079C73.2565 48.5084 75.2324 48.401 76.5943 47.3435L76.6005 47.3394C78.6363 45.7614 78.4193 42.8534 76.1645 41.5378L52.3721 26L28.5797 41.5398C26.327 42.8555 26.1079 45.7614 28.1437 47.3414L28.1499 47.3456C29.5139 48.403 31.4876 48.5104 32.9819 47.6099V47.6079Z" stroke="#464646" stroke-width="2" stroke-linecap="round" stroke-linejoin="round"></path><path d="M39.1449 52.4366H33.3581C31.5311 52.4366 30.0513 53.9154 30.0513 55.7412V57.3935C30.0513 59.2193 31.5311 60.6981 33.3581 60.6981H39.1449" stroke="#464646" stroke-width="2" stroke-linecap="round" stroke-linejoin="round"></path><path d="M33.3581 60.6982C31.5311 60.6982 30.0513 62.177 30.0513 64.0028V65.6551C30.0513 67.4809 31.5311 68.9597 33.3581 68.9597" stroke="#464646" stroke-width="2" stroke-linecap="round" stroke-linejoin="round"></path><path d="M39.1449 68.9596H33.3581C31.5311 68.9596 30.0513 70.4384 30.0513 72.2642V73.9165C30.0513 75.7423 31.5311 77.2211 33.3581 77.2211" stroke="#464646" stroke-width="2" stroke-linecap="round" stroke-linejoin="round"></path><path d="M65.5991 52.4366H71.386C73.213 52.4366 74.6928 53.9154 74.6928 55.7412V57.3935C74.6928 59.2193 73.213 60.6981 71.386 60.6981H65.5991" stroke="#464646" stroke-width="2" stroke-linecap="round" stroke-linejoin="round"></path><path d="M71.3862 60.6982C73.2132 60.6982 74.693 62.177 74.693 64.0028V65.6551C74.693 67.4809 73.2132 68.9597 71.3862 68.9597" stroke="#464646" stroke-width="2" stroke-linecap="round" stroke-linejoin="round"></path><path d="M65.5991 68.9596H71.386C73.213 68.9596 74.6928 70.4384 74.6928 72.2642V73.9165C74.6928 75.7423 73.213 77.2211 71.386 77.2211" stroke="#464646" stroke-width="2" stroke-linecap="round" stroke-linejoin="round"></path><path d="M44.1052 45.8275H60.6392" stroke="#464646" stroke-width="2" stroke-linecap="round" stroke-linejoin="round"></path><path d="M44.1052 60.6982H47.412" stroke="#464646" stroke-width="2" stroke-linecap="round" stroke-linejoin="round"></path><path d="M44.1052 73.0905H47.412" stroke="#464646" stroke-width="2" stroke-linecap="round" stroke-linejoin="round"></path><path d="M56.5056 65.655V68.1335" stroke="#464646" stroke-width="2" stroke-linecap="round" stroke-linejoin="round"></path><path d="M26.7444 77.221H44.105V52.4366H60.639V77.221H77.9996" stroke="#464646" stroke-width="2" stroke-linecap="round" stroke-linejoin="round"></path><path d="M64.7727 30.1307V26H73.8664V34.2615" stroke="#464646" stroke-width="2" stroke-linecap="round" stroke-linejoin="round"></path><path d="M63.1194 26H75.5198" stroke="#464646" stroke-width="2" stroke-linecap="round" stroke-linejoin="round"></path></svg> 