<?xml version="1.0" encoding="UTF-8"?> <svg xmlns="http://www.w3.org/2000/svg" width="105" height="108" viewBox="0 0 105 108" fill="none"><ellipse cx="52.059" cy="53.7408" rx="52.059" ry="53.7408" fill="#E9B237"></ellipse><path d="M36.4851 42.023C40.9126 42.023 44.5019 38.4361 44.5019 34.0115C44.5019 29.5869 40.9126 26 36.4851 26C32.0575 26 28.4683 29.5869 28.4683 34.0115C28.4683 38.4361 32.0575 42.023 36.4851 42.023Z" stroke="#464646" stroke-width="2" stroke-linecap="round" stroke-linejoin="round"></path><path d="M32.9221 34.0116C32.9221 32.0443 34.5166 30.4509 36.4851 30.4509" stroke="#464646" stroke-width="2" stroke-linecap="round" stroke-linejoin="round"></path><path d="M34.7415 41.8339L29.3591 65.1673" stroke="#464646" stroke-width="2" stroke-linecap="round" stroke-linejoin="round"></path><path d="M69.4435 68.7278C69.9354 68.7278 70.3342 68.3293 70.3342 67.8377C70.3342 67.346 69.9354 66.9475 69.4435 66.9475C68.9515 66.9475 68.5527 67.346 68.5527 67.8377C68.5527 68.3293 68.9515 68.7278 69.4435 68.7278Z" stroke="#464646" stroke-width="2" stroke-linecap="round" stroke-linejoin="round"></path><path d="M71.225 59.8263L70.3342 63.387" stroke="#464646" stroke-width="2" stroke-linecap="round" stroke-linejoin="round"></path><path d="M41.8298 65.1673H44.5021L48.0651 63.387" stroke="#464646" stroke-width="2" stroke-linecap="round" stroke-linejoin="round"></path><path d="M51.6284 61.6066L55.1914 59.8263" stroke="#464646" stroke-width="2" stroke-linecap="round" stroke-linejoin="round"></path><path d="M58.7542 57.1557L61.4264 52.7048" stroke="#464646" stroke-width="2" stroke-linecap="round" stroke-linejoin="round"></path><path d="M63.208 48.254C63.208 48.254 64.9895 46.4737 67.6618 47.3639" stroke="#464646" stroke-width="2" stroke-linecap="round" stroke-linejoin="round"></path><path d="M70.3342 50.9246C70.3342 50.9246 71.225 52.7049 71.225 55.3754" stroke="#464646" stroke-width="2" stroke-linecap="round" stroke-linejoin="round"></path><path d="M34.7039 65.1672H37.3761" stroke="#464646" stroke-width="2" stroke-linecap="round" stroke-linejoin="round"></path><path d="M24.0146 44.6934V81.1901H43.6113L61.4265 73.1786L79.2416 77.6294V41.1327L61.4265 36.6819L43.6113 44.6934" stroke="#464646" stroke-width="2" stroke-linecap="round" stroke-linejoin="round"></path><path d="M43.6113 44.6935V48.2541" stroke="#464646" stroke-width="2" stroke-linecap="round" stroke-linejoin="round"></path><path d="M61.4263 36.6819V41.1327" stroke="#464646" stroke-width="2" stroke-linecap="round" stroke-linejoin="round"></path><path d="M61.4263 69.618V73.1787" stroke="#464646" stroke-width="2" stroke-linecap="round" stroke-linejoin="round"></path><path d="M43.6113 76.7393V81.1901" stroke="#464646" stroke-width="2" stroke-linecap="round" stroke-linejoin="round"></path></svg> 