<?xml version="1.0" encoding="UTF-8"?> <svg xmlns="http://www.w3.org/2000/svg" width="89" height="71" viewBox="0 0 89 71" fill="none"><path d="M6.72734 40.8163L23.4448 17.267C23.6327 17.0033 23.9521 16.8669 24.2703 16.9184C24.5885 16.9685 24.8518 17.1963 24.9502 17.5051L29.9813 33.3937C30.1244 33.8453 29.8765 34.3278 29.4279 34.4719C28.9794 34.6147 28.5002 34.3664 28.3571 33.9148L23.8422 19.6563L8.11258 41.8134C7.94646 42.0476 7.68449 42.1724 7.41868 42.1724C7.24744 42.1724 7.07365 42.1209 6.92414 42.0128C6.54204 41.7375 6.45259 41.2023 6.72606 40.8163H6.72734ZM67.4314 21.5966H62.5447L53.1509 6.52624C52.9809 6.25347 52.6768 6.10036 52.3573 6.12738C52.0391 6.1544 51.7631 6.35898 51.6417 6.6549L44.1698 24.9289C44.0471 25.2287 44.1033 25.5723 44.3142 25.818L49.2814 31.5757L46.1007 38.5029C45.9039 38.9326 46.0892 39.4422 46.516 39.6416C46.9441 39.8397 47.4502 39.6532 47.647 39.2234L51.059 31.7918C51.1995 31.4856 51.1484 31.1241 50.9286 30.8693L45.9448 25.0923L52.5873 8.84861L61.3524 22.9102C61.5083 23.1598 61.7805 23.3116 62.0744 23.3116H66.9215L80.2066 48.365C80.3599 48.6544 80.6538 48.8191 80.9592 48.8191C81.0947 48.8191 81.2314 48.787 81.3592 48.7175C81.7745 48.4949 81.9317 47.9751 81.7094 47.5569L68.1828 22.0507C68.0346 21.7715 67.7458 21.5966 67.4314 21.5966ZM28.6548 20.786C28.8082 20.9031 28.9884 20.9597 29.1673 20.9597C29.4254 20.9597 29.6797 20.8426 29.8471 20.6187L42.06 4.34154L47.2534 8.80615C47.6112 9.11366 48.1492 9.0712 48.4546 8.71094C48.76 8.35068 48.7178 7.80901 48.36 7.50151L42.4779 2.44633C42.299 2.29322 42.0664 2.22117 41.8325 2.24561C41.5987 2.27135 41.3865 2.39229 41.2447 2.58142L28.4861 19.5856C28.2024 19.9638 28.2766 20.5016 28.6523 20.7873L28.6548 20.786ZM37.4992 46.7232C37.9694 46.7232 38.3515 46.3398 38.3515 45.865C38.3515 45.3903 37.9707 45.0068 37.4992 45.0068H1.82404C1.35377 45.0068 0.97168 45.3903 0.97168 45.865C0.97168 46.3398 1.35377 46.7232 1.82404 46.7232H37.4992ZM88.1193 51.2084H73.7736C73.3034 51.2084 72.9213 51.5918 72.9213 52.0666C72.9213 52.5414 73.3021 52.9248 73.7736 52.9248H88.1193C88.5896 52.9248 88.9717 52.5401 88.9717 52.0666C88.9717 51.5931 88.5896 51.2084 88.1193 51.2084ZM61.2068 52.0666C61.2068 51.5931 60.8259 51.2084 60.3544 51.2084H53.7093C53.2391 51.2084 52.857 51.5918 52.857 52.0666C52.857 52.5414 53.2378 52.9248 53.7093 52.9248H60.3544C60.8247 52.9248 61.2068 52.5401 61.2068 52.0666ZM22.8084 0.4855L19.629 3.10508L16.2848 0.47392C15.9142 0.183141 15.3787 0.24876 15.0886 0.621883C14.7986 0.995007 14.865 1.53411 15.2356 1.82617L19.1153 4.88064C19.2699 5.00158 19.4552 5.06205 19.6405 5.06205C19.8258 5.06205 20.0239 4.99772 20.1798 4.86777L23.887 1.8133C24.2512 1.51352 24.3048 0.973134 24.0071 0.606444C23.7093 0.239753 23.1726 0.185715 22.8084 0.4855ZM25.6006 7.56069L27.9124 9.37999C28.067 9.50093 28.2523 9.56141 28.4376 9.56141C28.6229 9.56141 28.8209 9.49707 28.9768 9.36712L31.1863 7.54783C31.5505 7.24804 31.6042 6.70765 31.3065 6.34096C31.0074 5.97427 30.472 5.92024 30.1078 6.22002L28.4261 7.60572L26.6511 6.20844C26.2805 5.91638 25.745 5.98328 25.455 6.3564C25.1649 6.72953 25.2313 7.26863 25.6019 7.56069H25.6006ZM7.40335 67.4547C7.40335 66.9812 7.02253 66.5965 6.55099 66.5965H3.98241L7.72155 60.4825C7.88384 60.2174 7.89023 59.8855 7.73944 59.614C7.58864 59.3425 7.30495 59.1752 6.9957 59.1752H5.8507L9.30614 53.9798L12.7616 59.1752H11.6166C11.3073 59.1752 11.0236 59.3438 10.8728 59.614C10.7221 59.8855 10.7297 60.2174 10.8907 60.4825L14.6299 66.5965H11.8006C11.3303 66.5965 10.9482 66.98 10.9482 67.4547C10.9482 67.9295 11.3303 68.3129 11.8006 68.3129H16.1544C16.4637 68.3129 16.7473 68.1444 16.8981 67.8729C17.0489 67.6014 17.0413 67.2694 16.8803 67.0044L13.1411 60.8903H14.3564C14.6708 60.8903 14.9596 60.7153 15.1078 60.4361C15.256 60.1569 15.2394 59.8186 15.0644 59.5548L10.0141 51.9598C9.85564 51.7218 9.58983 51.579 9.30614 51.579C9.02245 51.579 8.75664 51.7218 8.59818 51.9598L3.54793 59.5548C3.37285 59.8186 3.35624 60.1569 3.50448 60.4361C3.65271 60.7153 3.94152 60.8903 4.25588 60.8903H5.47116L1.73203 67.0044C1.56974 67.2694 1.56335 67.6014 1.71414 67.8729C1.86493 68.1444 2.14863 68.3129 2.45788 68.3129H6.55099C7.02126 68.3129 7.40335 67.9282 7.40335 67.4547ZM43.858 69.853C44.0088 69.5815 44.0011 69.2496 43.8401 68.9845L40.101 62.8704H41.3162C41.6306 62.8704 41.9194 62.6955 42.0677 62.4163C42.2159 62.1371 42.1993 61.7987 42.0242 61.5349L36.9739 53.9399C36.8155 53.7019 36.5497 53.5591 36.266 53.5591C35.9823 53.5591 35.7165 53.7019 35.558 53.9399L30.5078 61.5349C30.3327 61.7987 30.3161 62.1371 30.4643 62.4163C30.6126 62.6955 30.9014 62.8704 31.2157 62.8704H32.431L28.6919 68.9845C28.5296 69.2496 28.5232 69.5815 28.674 69.853C28.8248 70.1245 29.1098 70.2917 29.4177 70.2917H33.999C34.4693 70.2917 34.8514 69.9083 34.8514 69.4336C34.8514 68.9588 34.4705 68.5754 33.999 68.5754H30.9423L34.6814 62.4613C34.8437 62.1963 34.8501 61.8643 34.6993 61.5928C34.5485 61.3213 34.2635 61.1541 33.9555 61.1541H32.8105L36.266 55.9587L39.7214 61.1541H38.5764C38.2672 61.1541 37.9835 61.3226 37.8327 61.5928C37.6819 61.8643 37.6896 62.1963 37.8506 62.4613L41.5897 68.5754H38.9726C38.5023 68.5754 38.1202 68.9601 38.1202 69.4336C38.1202 69.907 38.5023 70.2917 38.9726 70.2917H43.1143C43.4235 70.2917 43.7072 70.1232 43.858 69.853ZM71.6523 58.6953C71.8005 58.4161 71.7839 58.0777 71.6089 57.814L67.2397 51.2444C67.0813 51.0064 66.8167 50.8636 66.5318 50.8636C66.2468 50.8636 65.9823 51.0064 65.8238 51.2444L61.4547 57.814C61.2796 58.0777 61.263 58.4161 61.4112 58.6953C61.5595 58.9745 61.8483 59.1495 62.1626 59.1495H63.0086L59.8829 64.2626C59.7206 64.5276 59.7142 64.8596 59.865 65.1311C60.0158 65.4025 60.2994 65.5698 60.6087 65.5698H64.5715C65.0417 65.5698 65.4238 65.1864 65.4238 64.7116C65.4238 64.2368 65.043 63.8534 64.5715 63.8534H62.1332L65.259 58.7404C65.4213 58.4753 65.4277 58.1434 65.2769 57.8719C65.1261 57.6004 64.8424 57.4318 64.5331 57.4318H63.7587L66.5318 53.2619L69.3048 57.4318H68.5304C68.2211 57.4318 67.9374 57.6004 67.7867 57.8719C67.6359 58.1434 67.6435 58.4753 67.8045 58.7404L70.9303 63.8534H68.8729C68.4026 63.8534 68.0205 64.2381 68.0205 64.7116C68.0205 65.1851 68.4013 65.5698 68.8729 65.5698H72.4561C72.7654 65.5698 73.0491 65.4013 73.1998 65.1311C73.3506 64.8596 73.343 64.5276 73.182 64.2626L70.0562 59.1495H70.9022C71.2165 59.1495 71.5053 58.9745 71.6536 58.6953H71.6523ZM18.5415 64.1995C18.5415 64.673 18.9223 65.0577 19.3939 65.0577H26.0811C26.3904 65.0577 26.6741 64.8892 26.8249 64.6177C26.9757 64.3462 26.968 64.0143 26.807 63.7492L23.0678 57.6351H24.2831C24.5975 57.6351 24.8863 57.4602 25.0345 57.181C25.1828 56.9018 25.1662 56.5634 24.9911 56.2996L19.9408 48.7046C19.7824 48.4666 19.5166 48.3238 19.2329 48.3238C18.9492 48.3238 18.6834 48.4666 18.5249 48.7046L14.7347 54.4044C14.4727 54.7981 14.5775 55.3308 14.9685 55.5945C15.3596 55.8583 15.8886 55.7528 16.1506 55.3591L19.2341 50.7233L22.6896 55.9188H21.5446C21.2353 55.9188 20.9516 56.0873 20.8008 56.3575C20.6501 56.629 20.6577 56.9609 20.8187 57.226L24.5579 63.3401H19.3952C18.9249 63.3401 18.5428 63.7235 18.5428 64.1983L18.5415 64.1995ZM44.3922 61.7794C44.3922 62.2529 44.773 62.6376 45.2445 62.6376H50.8545C51.1637 62.6376 51.4474 62.469 51.5982 62.1988C51.749 61.9273 51.7414 61.5954 51.5803 61.3303L48.5722 56.4128H49.3466C49.6609 56.4128 49.9497 56.2379 50.098 55.9587C50.2462 55.6795 50.2296 55.3411 50.0545 55.0773L45.8183 48.7059C45.6598 48.4679 45.394 48.3251 45.1103 48.3251C44.8266 48.3251 44.5608 48.4679 44.4024 48.7059L41.223 53.487C40.961 53.8807 41.0658 54.4134 41.4568 54.6772C41.8479 54.9409 42.3769 54.8354 42.6389 54.4417L45.1116 50.7246L47.753 54.6965H47.0502C46.7422 54.6965 46.4572 54.865 46.3064 55.1352C46.1557 55.4067 46.1633 55.7386 46.3243 56.0037L49.3325 60.9212H45.2471C44.7768 60.9212 44.3947 61.3059 44.3947 61.7794H44.3922Z" fill="#464646"></path></svg> 