<?xml version="1.0" encoding="UTF-8"?> <svg xmlns="http://www.w3.org/2000/svg" width="65" height="66" viewBox="0 0 65 66" fill="none"><path d="M63.6997 4.08808L61.7632 2.15194C60.045 0.434053 57.251 0.434053 55.5359 2.15194L49.8543 7.83252C48.95 8.73667 48.819 10.1241 49.4583 11.1716L33.508 27.119C32.7721 26.5017 31.4188 25.4167 30.4334 24.9023L30.3492 24.8586C27.2932 23.306 24.4056 23.4151 21.9983 25.1798C21.8985 25.2546 21.78 25.345 21.6678 25.4448C21.1127 25.9156 20.0774 26.9351 19.3914 28.4784C17.9507 31.6897 17.0838 33.0708 14.2212 33.8129C12.8491 34.2026 11.474 34.5923 10.1019 34.9852C9.25059 35.2283 8.37123 35.431 7.56358 35.802C6.30378 36.3819 5.23107 37.2954 4.25192 38.265C3.4318 39.0757 2.67093 39.9143 2.06909 40.9027C-0.874607 45.7259 -0.656324 51.9926 2.58985 56.6131C4.06794 58.7145 6.08861 60.6132 8.01885 62.303C10.6195 64.5821 14.0216 65.8635 17.4799 65.8635C20.093 65.8635 22.6968 65.1589 24.9545 63.7809C26.0521 63.1105 27.0063 62.2531 27.8826 61.3178C28.288 60.8844 28.684 60.4417 29.0426 59.9647C29.2765 59.6498 29.9563 58.9078 29.9563 58.5025L29.9906 58.4308C30.1434 58.1159 30.2712 57.8041 30.371 57.5017L32.0455 51.6091C32.7815 48.7688 34.1629 47.8989 37.3716 46.4617C38.8934 45.782 39.9068 44.7687 40.3871 44.2075L40.4089 44.1826C40.5149 44.061 40.6022 43.9487 40.674 43.849C42.4452 41.4327 42.5481 38.5363 40.9764 35.4684L40.9265 35.3156L40.861 35.2502C40.3309 34.2961 39.3237 33.0459 38.7344 32.3413L54.6846 16.3939C55.1087 16.6527 55.592 16.7961 56.1034 16.7961C56.83 16.7961 57.5129 16.5124 58.0274 16.0011L63.709 10.3205C64.5416 9.48805 65 8.38436 65 7.20584C65 6.02733 64.5416 4.92364 63.709 4.09119L63.6997 4.08808ZM39.2333 36.1824L39.2894 36.3476L39.3518 36.4069C40.5523 38.8013 40.4868 40.9307 39.1584 42.739C39.1179 42.7952 39.068 42.8606 39.0119 42.9292L38.9745 42.9698C38.6782 43.3189 37.855 44.1919 36.6014 44.75C33.2773 46.2403 31.1911 47.4126 30.2338 51.1165C29.6226 53.2677 29.2141 55.5499 28.288 57.6014C27.4834 59.3848 25.9243 60.8657 24.3121 61.932C20.8071 64.2485 16.2138 64.5697 12.3814 62.8892C10.3888 62.0131 8.90758 60.6039 7.38272 59.0949C5.75807 57.4861 4.12407 55.8087 3.08567 53.7448C2.81125 53.2023 2.5805 52.6411 2.40275 52.0612C1.31758 48.5319 1.87264 44.6253 3.9089 41.5449C5.22172 39.5527 7.15508 37.7724 9.48447 37.1115C11.0499 36.6656 12.6153 36.2229 14.1807 35.7771C14.3553 35.7272 14.5299 35.6742 14.7077 35.6274C18.4309 34.664 19.6065 32.5751 21.0971 29.2516C21.6553 28.0014 22.5253 27.1783 22.8839 26.8727C22.965 26.8041 23.0398 26.7449 23.1053 26.6981C24.9389 25.3544 27.103 25.3076 29.5353 26.5547L29.607 26.5984L29.6288 26.6046C30.3617 27.0006 31.4406 27.8486 32.1765 28.4565L29.8658 30.7668C29.6226 31.01 29.4916 31.3311 29.4916 31.6741C29.4916 32.017 29.6257 32.3382 29.8658 32.5814L33.2742 35.9891C33.5174 36.2323 33.8386 36.3632 34.1816 36.3632C34.5246 36.3632 34.8458 36.2291 35.089 35.9891L37.3997 33.6757C38.0078 34.4084 38.8404 35.4715 39.2333 36.1917V36.1824ZM34.1816 34.2369L31.6059 31.6616L50.7243 12.5466L53.3 15.1219L34.1816 34.2369ZM62.3775 8.99544L56.6959 14.676C56.3747 14.9971 55.8197 14.9971 55.4985 14.676L51.1733 10.3548C50.8428 10.0243 50.8428 9.48805 51.1733 9.15757L56.8549 3.47699C57.3476 2.98439 57.9994 2.73497 58.648 2.73497C59.2966 2.73497 59.9452 2.98127 60.441 3.47699L62.3775 5.41625C62.8546 5.89326 63.1197 6.52929 63.1197 7.20584C63.1197 7.8824 62.8546 8.51842 62.3775 8.99544ZM18.1285 55.3379C18.4933 55.7027 18.4933 56.2951 18.1285 56.6599C17.9445 56.8438 17.7075 56.9342 17.4674 56.9342C17.2273 56.9342 16.9872 56.8438 16.8063 56.6599L9.18199 49.0369C8.81715 48.6722 8.81715 48.0798 9.18199 47.715C9.54683 47.3502 10.1393 47.3502 10.5042 47.715L18.1285 55.3379ZM25.6062 33.4824C22.0045 33.4824 19.0733 36.4131 19.0733 40.0141C19.0733 43.6151 22.0045 46.5458 25.6062 46.5458C29.2079 46.5458 32.1391 43.6151 32.1391 40.0141C32.1391 36.4131 29.2079 33.4824 25.6062 33.4824ZM25.6062 44.6752C23.0367 44.6752 20.9443 42.5832 20.9443 40.0141C20.9443 37.4451 23.0367 35.3531 25.6062 35.3531C28.1757 35.3531 30.2681 37.4451 30.2681 40.0141C30.2681 42.5832 28.1757 44.6752 25.6062 44.6752Z" fill="#464646"></path></svg> 