<?xml version="1.0" encoding="UTF-8"?> <svg xmlns="http://www.w3.org/2000/svg" width="66" height="61" viewBox="0 0 66 61" fill="none"><path d="M65.0494 58.6142H50.445V53.5695H64.3163C64.7186 53.5695 65.0971 53.3515 65.2967 53.0023C65.4994 52.653 65.4994 52.2172 65.2967 51.868L59.5575 41.9127H61.554C61.9563 41.9127 62.3347 41.6948 62.5344 41.3456C62.737 40.9963 62.737 40.5605 62.5344 40.2112L56.7951 30.253H58.7917C59.1939 30.253 59.5724 30.0351 59.772 29.6859C59.9747 29.3366 59.9747 28.9008 59.772 28.5515L50.5255 12.5038C50.3229 12.1545 49.9474 11.9366 49.5451 11.9366C49.1428 11.9366 48.7674 12.1545 48.5647 12.5038L41.2223 25.2441C40.975 25.6739 41.121 26.2202 41.5501 26.468C41.9792 26.7157 42.5245 26.5695 42.7719 26.1396L49.5481 14.3814L57.6623 28.459H55.6658C55.2635 28.459 54.885 28.6769 54.6854 29.0262C54.4828 29.3754 54.4828 29.8112 54.6854 30.1605L60.4246 40.1187H58.4281C58.0258 40.1187 57.6474 40.3366 57.4477 40.6859C57.2451 41.0351 57.2451 41.4709 57.4477 41.8202L63.187 51.7754H48.3979C47.9032 51.7754 47.5039 52.1754 47.5039 52.6709C47.5039 53.1665 47.9032 53.5665 48.3979 53.5665H48.6631V58.6112H31.1056V52.3665H44.2558C44.6551 52.3665 45.0276 52.1694 45.2541 51.8411C45.4806 51.5127 45.5312 51.0948 45.3912 50.7217L40.0185 36.5426H40.6383C41.0376 36.5426 41.4101 36.3456 41.6365 36.0172C41.863 35.6889 41.9137 35.2709 41.7706 34.8978L36.3949 20.7157H37.0177C37.417 20.7157 37.7895 20.5187 38.016 20.1903C38.2424 19.862 38.2931 19.4441 38.1501 19.0709L31.3649 1.18736C31.1861 0.712736 30.7421 0.405273 30.2325 0.405273C29.726 0.405273 29.279 0.712736 29.1002 1.18736L22.321 19.0739C22.1809 19.4471 22.2316 19.865 22.4581 20.1933C22.6845 20.5217 23.057 20.7187 23.4563 20.7187H24.0791L18.7034 34.9008C18.5634 35.2739 18.614 35.6918 18.8405 36.0202C19.067 36.3486 19.4394 36.5456 19.8387 36.5456H20.4586L15.0858 50.7247C14.9458 51.0978 14.9964 51.5157 15.2229 51.8441C15.4494 52.1724 15.8219 52.3694 16.2212 52.3694H29.3177V58.6142H12.6841V55.0829H12.7735C13.2681 55.0829 13.6674 54.6829 13.6674 54.1874C13.6674 53.6918 13.2681 53.2918 12.7735 53.2918H3.53287L6.92695 44.3396C7.05508 43.9993 7.01038 43.6172 6.80477 43.3187C6.60512 43.0262 6.27733 42.85 5.92571 42.8411L9.31979 33.8859C9.44792 33.5456 9.40322 33.1635 9.19761 32.865C8.99796 32.5724 8.67017 32.3963 8.31557 32.3874L11.802 23.1903L15.0292 31.7068C15.205 32.1695 15.7206 32.4023 16.1824 32.2262C16.6443 32.05 16.8767 31.5336 16.7009 31.0709L12.8331 20.865C12.6692 20.4321 12.2639 20.1515 11.802 20.1515C11.3401 20.1515 10.9349 20.4321 10.771 20.865L6.29521 32.6769C6.16708 33.0172 6.21178 33.3993 6.41739 33.6978C6.61704 33.9903 6.94483 34.1665 7.29943 34.1754L3.90535 43.1306C3.77722 43.4709 3.82192 43.853 4.02753 44.1515C4.22718 44.4411 4.55497 44.6202 4.90659 44.6292L1.51252 53.5814C1.38438 53.9217 1.42908 54.3008 1.63767 54.6023C1.84328 54.9008 2.18299 55.0799 2.54653 55.0799H10.8932V58.6112H1.83732C1.34266 58.6112 0.943359 59.0112 0.943359 59.5068C0.943359 60.0023 1.34266 60.4023 1.83732 60.4023H65.0494C65.5441 60.4023 65.9434 60.0023 65.9434 59.5068C65.9434 59.0112 65.5441 58.6112 65.0494 58.6112V58.6142ZM22.4223 36.3993C22.5623 36.0262 22.5117 35.6083 22.2852 35.2799C22.0588 34.9515 21.6863 34.7545 21.287 34.7545H20.6671L26.0428 20.5724C26.1829 20.1993 26.1322 19.7814 25.9058 19.453C25.6793 19.1247 25.3068 18.9277 24.9075 18.9277H24.2847L30.2266 3.24706L36.1714 18.9277H35.5486C35.1493 18.9277 34.7769 19.1247 34.5504 19.453C34.3239 19.7814 34.2733 20.1993 34.4133 20.5724L39.789 34.7545H39.1692C38.7699 34.7545 38.3974 34.9515 38.1709 35.2799C37.9445 35.6083 37.8938 36.0262 38.0368 36.3993L43.4095 50.5784H17.0496L22.4223 36.3993Z" fill="#464646"></path></svg> 