<?xml version="1.0" encoding="UTF-8"?> <svg xmlns="http://www.w3.org/2000/svg" width="61" height="71" viewBox="0 0 61 71" fill="none"><path d="M53.1127 14.8218C53.1447 14.3529 53.5462 13.999 54.0103 14.0313C55.0587 14.1036 55.2863 13.9499 56.552 13.0935C56.7796 12.9398 57.0366 12.7655 57.3307 12.5717C57.3332 12.5704 57.3345 12.5691 57.3371 12.5678C57.3448 12.5627 57.3524 12.5575 57.3614 12.5536C57.3652 12.551 57.369 12.5485 57.3742 12.5459C57.3818 12.5407 57.3908 12.5368 57.3984 12.533C57.4023 12.5304 57.4074 12.5278 57.4112 12.5265C57.4189 12.5226 57.4266 12.5187 57.4355 12.5149C57.4406 12.5123 57.4445 12.5097 57.4496 12.5084C57.4573 12.5045 57.4649 12.502 57.4726 12.4981C57.4777 12.4955 57.4828 12.4942 57.488 12.4916C57.4956 12.489 57.502 12.4865 57.5097 12.4839C57.5161 12.4813 57.5212 12.48 57.5276 12.4774C57.534 12.4748 57.5416 12.4735 57.548 12.471C57.5544 12.4697 57.5608 12.4671 57.5672 12.4658C57.5736 12.4645 57.58 12.4619 57.5877 12.4606C57.5941 12.4593 57.6005 12.4567 57.6081 12.4555C57.6145 12.4542 57.6209 12.4529 57.6273 12.4516C57.635 12.4503 57.6414 12.449 57.649 12.4477C57.6554 12.4477 57.6606 12.4464 57.6669 12.4451C57.6746 12.4451 57.6823 12.4425 57.69 12.4412C57.6951 12.4412 57.7015 12.4412 57.7066 12.44C57.7155 12.44 57.7232 12.4387 57.7309 12.4374C57.736 12.4374 57.7411 12.4374 57.7462 12.4374C57.7552 12.4374 57.7641 12.4374 57.7731 12.4374C57.7782 12.4374 57.7833 12.4374 57.7871 12.4374C57.7961 12.4374 57.805 12.4374 57.8153 12.4374C57.8204 12.4374 57.8255 12.4374 57.8293 12.4374C57.8383 12.4374 57.8472 12.4374 57.8562 12.4387C57.8587 12.4387 57.8613 12.4387 57.8638 12.4387C57.8664 12.4387 57.8702 12.4387 57.8728 12.4387C57.8805 12.4387 57.8894 12.44 57.8971 12.4412C57.9035 12.4412 57.9099 12.4425 57.9163 12.4438C57.9227 12.4438 57.9291 12.4464 57.9354 12.4464C57.9431 12.4477 57.9521 12.449 57.9597 12.4503C57.9636 12.4503 57.9687 12.4529 57.9725 12.4529C57.9828 12.4555 57.9917 12.4567 58.0019 12.4593C58.0045 12.4593 58.007 12.4593 58.0096 12.4619C58.0211 12.4645 58.0313 12.4684 58.0428 12.471C58.0428 12.471 58.0454 12.471 58.0467 12.471C58.0582 12.4748 58.071 12.4787 58.0825 12.4826C58.0825 12.4826 58.0825 12.4826 58.0838 12.4826C58.0965 12.4877 58.1081 12.4916 58.1196 12.4968H58.1208C58.1323 12.502 58.1439 12.5071 58.1554 12.5123C58.1566 12.5123 58.1592 12.5136 58.1605 12.5149C58.1707 12.52 58.1809 12.5252 58.1912 12.5304C58.195 12.533 58.1975 12.5342 58.2014 12.5368C58.2091 12.5407 58.2167 12.5459 58.2257 12.551C58.2308 12.5549 58.2372 12.5575 58.2423 12.5614C58.2474 12.5652 58.2538 12.5678 58.2589 12.5717C58.2666 12.5769 58.273 12.582 58.2807 12.5872C58.2845 12.5898 58.2883 12.5924 58.2909 12.595C58.2998 12.6014 58.3075 12.6079 58.3152 12.6143C58.3177 12.6156 58.3203 12.6182 58.3216 12.6195C58.3305 12.6272 58.3382 12.6337 58.3471 12.6415C58.3484 12.6427 58.351 12.644 58.3523 12.6466C58.3599 12.6544 58.3676 12.6621 58.3765 12.6699C58.3791 12.6712 58.3804 12.6737 58.3829 12.675C58.3906 12.6828 58.397 12.6892 58.4047 12.697C58.4072 12.6996 58.4098 12.7022 58.4123 12.706C58.4187 12.7125 58.4239 12.719 58.4302 12.7267C58.4341 12.7306 58.4366 12.7345 58.4405 12.7396C58.4456 12.7461 58.4507 12.7512 58.4545 12.7577C58.4584 12.7629 58.4635 12.7693 58.4673 12.7745C58.4712 12.7797 58.475 12.7848 58.4788 12.79C58.4839 12.7965 58.4891 12.8042 58.4929 12.8107C58.4942 12.8132 58.4955 12.8158 58.498 12.8171C58.4993 12.8184 58.5006 12.821 58.5018 12.8236C58.507 12.8313 58.5121 12.8391 58.5172 12.8481C58.5197 12.852 58.5223 12.8559 58.5249 12.8597C58.53 12.8675 58.5338 12.8765 58.5376 12.8843C58.5402 12.8882 58.5428 12.8933 58.544 12.8972C58.5479 12.905 58.5517 12.914 58.5555 12.9217C58.5581 12.9269 58.5594 12.9308 58.5619 12.936C58.5658 12.9437 58.5683 12.9515 58.5722 12.9592C58.5747 12.9644 58.576 12.9695 58.5786 12.9747C58.5811 12.9825 58.5837 12.9902 58.5862 12.9967C58.5888 13.0018 58.5901 13.0083 58.5926 13.0135C58.5952 13.0199 58.5977 13.0277 58.599 13.0354C58.6003 13.0419 58.6029 13.0483 58.6041 13.0535C58.6067 13.06 58.608 13.0677 58.6092 13.0742C58.6105 13.0806 58.6131 13.0871 58.6144 13.0948C58.6156 13.1013 58.6169 13.1077 58.6182 13.1142C58.6195 13.122 58.6208 13.1284 58.622 13.1362C58.622 13.1426 58.6233 13.1491 58.6246 13.1542C58.6246 13.162 58.6271 13.1697 58.6284 13.1775C58.6284 13.1827 58.6284 13.1891 58.6297 13.1943C58.6297 13.202 58.631 13.2111 58.6323 13.2188C58.6323 13.224 58.6323 13.2292 58.6323 13.2343C58.6323 13.2434 58.6323 13.2524 58.6323 13.2615C58.6323 13.2666 58.6323 13.2718 58.6323 13.277C58.6323 13.286 58.6323 13.295 58.6323 13.3041C58.6323 13.3092 58.6323 13.3144 58.6323 13.3196C58.6323 13.3286 58.6323 13.3377 58.631 13.3467C58.631 13.3493 58.631 13.3519 58.631 13.3544L57.2732 29.2728C57.2732 29.2896 57.2706 29.3064 57.268 29.3232C57.268 29.3258 57.268 29.3284 57.268 29.3322C57.2668 29.3426 57.2642 29.3529 57.2629 29.3632C57.2616 29.371 57.2604 29.3787 57.2578 29.3865C57.2578 29.3917 57.2553 29.3968 57.254 29.4033C57.2514 29.4136 57.2489 29.4239 57.2463 29.4343C57.2463 29.4369 57.2463 29.4394 57.2437 29.442C57.2399 29.4537 57.2374 29.4653 57.2335 29.4769C57.2335 29.4769 57.2335 29.4795 57.2335 29.4808C57.2297 29.4924 57.2246 29.5053 57.2207 29.5169C57.2207 29.5169 57.2207 29.5169 57.2207 29.5195C57.2156 29.5311 57.2118 29.5428 57.2067 29.5544C57.2067 29.5544 57.2067 29.5557 57.2067 29.557C57.2016 29.5686 57.1964 29.5789 57.1913 29.5893C57.1913 29.5906 57.19 29.5931 57.1888 29.5944C57.1837 29.6035 57.1785 29.6138 57.1734 29.6229C57.1721 29.6254 57.1696 29.6293 57.1683 29.6319C57.1632 29.6396 57.1594 29.6474 57.1542 29.6551C57.1517 29.659 57.1491 29.6642 57.1466 29.6681C57.1427 29.6745 57.1389 29.681 57.1351 29.6861C57.1312 29.6926 57.1274 29.6978 57.1223 29.7042C57.1197 29.7081 57.1159 29.7133 57.1133 29.7171C57.1082 29.7249 57.1018 29.7314 57.0967 29.7391C57.0942 29.7417 57.0916 29.7443 57.0903 29.7469C57.0839 29.7546 57.0763 29.7636 57.0699 29.7714C57.0699 29.7727 57.0673 29.774 57.066 29.7766C57.0584 29.7856 57.0507 29.7946 57.0417 29.8024C57.0417 29.8024 57.0405 29.8037 57.0392 29.805C57.0302 29.814 57.0213 29.8231 57.0123 29.8321C57.0123 29.8321 57.0123 29.8321 57.011 29.8334C57.0021 29.8424 56.9919 29.8502 56.9829 29.8592C56.9829 29.8592 56.9816 29.8605 56.9804 29.8618C56.9714 29.8696 56.9625 29.8773 56.9522 29.8851C56.9497 29.8864 56.9484 29.8876 56.9458 29.8902C56.9369 29.8967 56.9292 29.9031 56.9203 29.9083C56.9152 29.9109 56.9113 29.9148 56.9062 29.9174C56.8998 29.9212 56.8934 29.9264 56.887 29.9303C56.8781 29.9354 56.8691 29.9406 56.8602 29.9458C56.8576 29.9471 56.8551 29.9484 56.8525 29.9509C56.8372 29.96 56.8218 29.9677 56.8065 29.9755C54.78 30.9946 52.756 31.5074 50.7883 31.5009C50.1209 31.4983 49.4612 31.4363 48.8116 31.3162C47.9141 31.1496 47.0357 30.8706 46.1868 30.4818C43.7805 29.38 42.4342 27.7848 42.2974 27.6182C42.2948 27.6156 42.2936 27.613 42.291 27.6105C42.2897 27.6092 42.2884 27.6079 42.2884 27.6066C42.1376 27.4193 42.0647 27.1687 42.112 26.913C42.1964 26.4493 42.6362 26.1431 43.0952 26.2284C43.2985 26.2658 43.4724 26.3756 43.5938 26.5255C43.5938 26.5255 44.7995 27.9954 46.9475 28.9615C49.6619 30.1821 52.586 30.0775 55.643 28.6528L56.8103 14.9639C55.8808 15.5593 55.2249 15.8202 53.9029 15.7285C53.8709 15.7259 53.8389 15.7221 53.807 15.7169C53.3914 15.6394 53.091 15.2584 53.1204 14.8218H53.1127ZM27.135 49.3865C26.9023 50.0891 25.7183 53.6322 25.2069 54.3787C24.5651 55.3165 23.5064 55.8771 22.3762 55.8771C21.6755 55.8771 21.0004 55.6639 20.4225 55.2596C19.6707 54.7339 19.1644 53.9434 18.9969 53.0354C18.8333 52.1442 19.0148 51.2426 19.5084 50.4883C19.6592 50.1511 20.2218 48.3997 20.4941 47.5472C20.5453 47.3896 20.5926 47.2397 20.636 47.1041C20.6578 47.0383 20.6782 46.9724 20.6974 46.9078C20.6539 46.9143 20.6105 46.922 20.567 46.9298C20.4021 46.9595 20.232 46.993 20.0581 47.0318C19.6158 47.5368 19.0736 47.9553 18.4753 48.255C17.9472 48.5185 17.3732 48.6903 16.7876 48.7587C16.3273 50.0142 15.7737 51.6779 15.1919 53.4268C14.1128 56.674 12.888 60.3539 11.8485 62.6518C11.2898 63.8853 10.0624 64.681 8.71988 64.681C8.22508 64.681 7.74434 64.5751 7.29173 64.3658C5.56695 63.5689 4.80621 61.5035 5.59508 59.7624C6.85574 56.9775 8.54088 51.9272 9.77086 48.2382C10.3283 46.5655 10.7796 45.2144 11.0891 44.3697C11.0085 43.8362 11.0098 43.2937 11.0954 42.7551C11.6606 39.1824 11.7104 36.6495 11.6388 35.0879C11.0277 35.3552 10.3973 35.6161 9.84757 35.8448C9.40135 36.0295 8.88481 36.2439 8.52682 36.4028C8.58435 36.7399 8.69175 37.2165 8.88865 37.8675C9.20318 38.9086 9.56756 39.783 9.5714 39.7908C9.93068 40.6433 9.93963 41.5862 9.59697 42.4477C9.25432 43.308 8.5997 43.9822 7.75457 44.3464C7.32497 44.5311 6.87236 44.6241 6.40825 44.6241C5.02612 44.6241 3.78337 43.7949 3.24253 42.5097C3.2208 42.458 2.69659 41.209 2.25293 39.7016C1.51009 37.1739 1.3899 35.3074 1.87192 33.8259C2.37184 32.2901 4.51087 31.3149 7.22013 30.0814C7.98982 29.7314 8.78509 29.3684 9.56884 28.9796C10.3705 28.5818 11.245 28.1801 12.1694 27.7861C12.1771 27.7835 12.1835 27.7797 12.1912 27.7771C13.4096 27.2966 16.0524 26.8742 17.8462 26.8742C18.6658 26.8742 19.2731 26.9569 19.6976 27.1274C20.3982 27.2992 21.136 27.3857 21.8942 27.3857C22.637 27.3857 23.3939 27.303 24.1431 27.1416C25.5112 26.8458 26.1402 26.51 26.4087 26.3666C26.4893 26.324 26.5532 26.2891 26.6248 26.2594C27.406 25.9326 28.0862 25.775 28.705 25.775C29.2574 25.775 29.7598 25.9003 30.2086 26.1483L31.3913 1.79155C31.4156 1.32268 31.8119 0.961012 32.276 0.985554C32.7402 1.0101 33.0982 1.41051 33.0739 1.87938L32.9204 4.86181C34.5263 4.56086 37.8033 4.04807 41.2694 4.09199C44.1219 4.12944 46.509 4.54277 48.3616 5.32164C49.5072 5.80214 50.4648 6.43118 51.2077 7.18938C52.0438 8.04316 52.6218 9.07132 52.9273 10.248C52.9682 10.4043 52.9631 10.5696 52.9145 10.7233L48.2248 25.4586C48.1199 25.7866 47.8297 26.0191 47.4896 26.0463C47.4155 26.0527 47.3426 26.0476 47.271 26.0346C47.0166 25.9868 46.7928 25.8228 46.6713 25.5826C45.0527 22.3547 42.0877 20.7944 37.8582 20.9468C35.172 21.0437 32.8092 21.8225 32.0357 22.1028L31.7582 28.0638C31.8938 28.5043 31.9334 28.9732 31.8682 29.4472C31.8311 29.7223 31.7595 29.991 31.6572 30.2493L30.7955 48.7884C30.7712 49.2573 30.3748 49.619 29.9107 49.5944C29.8736 49.5931 29.8366 49.588 29.8008 49.5815C29.3903 49.5053 29.0912 49.132 29.1129 48.7006L29.9133 32.2385C28.8099 32.9941 27.4546 33.5249 25.6403 33.9228C24.4167 34.1914 23.1714 34.3296 21.9389 34.3322C22.031 36.0243 21.9977 37.8752 21.8392 39.8566C23.546 39.8605 24.987 40.2583 26.1223 41.0398C26.7028 41.4389 27.1426 42.0008 27.3945 42.6634C28.0913 44.495 28.0057 46.7567 27.1362 49.3852L27.135 49.3865ZM32.129 20.2739C33.3117 19.8928 35.4239 19.3322 37.7981 19.2457C39.9321 19.1682 41.8358 19.495 43.4558 20.2157C44.9504 20.8809 46.197 21.8781 47.1764 23.1891L51.232 10.4469C50.7423 8.84399 49.5903 7.67891 47.7146 6.8923C46.0602 6.19739 43.8841 5.82797 41.2464 5.7931C37.6332 5.7466 34.153 6.35109 32.8297 6.61201L32.1277 20.2739H32.129ZM25.7989 43.2834C25.6723 42.9502 25.4511 42.6673 25.1583 42.4671C24.3068 41.8807 23.1817 41.5836 21.8136 41.5836C21.5425 41.5836 21.2574 41.5952 20.9672 41.6185C20.7153 41.6391 20.4673 41.5448 20.2896 41.3627C20.1118 41.1806 20.0249 40.9274 20.0492 40.673C20.31 38.0328 20.3497 35.6278 20.1681 33.5211C20.1464 33.2718 20.2333 33.0251 20.4059 32.8455C20.5785 32.666 20.8189 32.5704 21.0656 32.5846C21.3393 32.6001 21.6167 32.6079 21.889 32.6079C23.0154 32.6079 24.1546 32.4826 25.2759 32.2372C27.2257 31.8096 28.489 31.2581 29.499 30.3927C29.7356 30.1899 29.9171 29.9496 30.036 29.69L30.0948 28.4823C30.0398 28.3377 29.9555 28.1878 29.8327 28.0406C29.5195 27.6673 29.1717 27.5007 28.705 27.5007C28.3164 27.5007 27.8522 27.6156 27.2858 27.8507C27.2705 27.8585 27.236 27.8765 27.2078 27.892C26.8767 28.069 26.1006 28.4849 24.5011 28.8298C23.6343 29.0171 22.7572 29.1114 21.8954 29.1114C20.9761 29.1114 20.076 29.0016 19.2232 28.7859C19.1747 28.7742 19.1273 28.7574 19.0826 28.7368C19.0315 28.7135 18.7348 28.5999 17.8475 28.5999C16.1381 28.5999 13.751 29.0184 12.8241 29.3813C11.9342 29.7611 11.0929 30.1473 10.3245 30.5283C9.51642 30.93 8.7071 31.2981 7.92462 31.6546C6.74579 32.192 5.63216 32.6996 4.8011 33.1969C3.85241 33.7652 3.56857 34.1462 3.49697 34.3658C3.12874 35.4973 3.25404 37.037 3.89204 39.2108C4.30757 40.6239 4.79471 41.7838 4.81516 41.8329C5.0875 42.48 5.71399 42.8972 6.40953 42.8972C6.64222 42.8972 6.86981 42.8494 7.08588 42.7564C7.51164 42.573 7.84023 42.2346 8.01284 41.8019C8.18544 41.3692 8.18033 40.8938 8.00005 40.465C7.98343 40.425 7.59858 39.5027 7.25593 38.3712C6.87876 37.1261 6.77647 36.3666 6.75729 35.9494C6.74451 35.6781 6.8583 35.4172 7.06543 35.2441C7.30324 35.0452 7.70726 34.867 9.19934 34.2483C10.1634 33.8492 11.254 33.3958 12.1247 32.9721C12.3778 32.8481 12.6757 32.8585 12.9212 33.0005C13.1654 33.1426 13.3252 33.3958 13.3483 33.6799C13.3572 33.7872 13.3534 33.9409 13.3419 34.2922C13.3368 34.4343 13.3304 34.6487 13.3316 34.7094C13.4263 36.3266 13.4084 39.0817 12.7844 43.0277C12.7179 43.4462 12.7269 43.8672 12.81 44.278C12.8432 44.4394 12.8292 44.6061 12.7704 44.7598C12.4737 45.5438 11.9713 47.0473 11.3908 48.7884C10.148 52.5123 8.44755 57.613 7.14981 60.4792C6.75218 61.3563 7.13575 62.3947 8.00389 62.7965C8.23275 62.9011 8.47312 62.9553 8.72244 62.9553C9.3988 62.9553 10.0163 62.5536 10.2976 61.9336C11.3 59.7184 12.5095 56.0837 13.5758 52.8778C14.2471 50.859 14.8813 48.9512 15.3901 47.6195C15.5193 47.2798 15.8466 47.0602 16.2071 47.068C17.2543 47.0654 18.2669 46.5642 18.9151 45.7259C19.034 45.5735 19.1989 45.465 19.3856 45.4185C19.6874 45.3449 19.9853 45.2816 20.2717 45.2299C20.8266 45.1318 21.3354 45.0801 21.7842 45.0762C22.0322 45.0736 22.2688 45.1821 22.4324 45.3694C22.5961 45.558 22.6702 45.8086 22.637 46.0566C22.5718 46.5358 22.4452 47.068 22.2624 47.6363C22.2189 47.7706 22.1716 47.9192 22.1205 48.0767C21.2919 50.6575 21.1053 51.1677 20.9634 51.3911C20.9582 51.3989 20.9544 51.4066 20.9493 51.4131C20.4149 52.2036 20.6143 53.2912 21.3942 53.8362C21.6845 54.039 22.0246 54.1475 22.3762 54.1475C22.9451 54.1475 23.4783 53.8659 23.8018 53.3932C23.9961 53.1052 24.707 51.28 25.5138 48.8362C26.254 46.5978 26.3486 44.7288 25.7976 43.2808L25.7989 43.2834ZM17.5611 69.2573H3.95725L6.05536 67.9954C6.46067 67.7512 6.59364 67.2217 6.35199 66.8122C6.11034 66.4028 5.58613 66.2684 5.18083 66.5125L0.41692 69.3787C0.0870516 69.5777 -0.0714897 69.9755 0.030795 70.3488C0.13308 70.7234 0.469341 70.983 0.854187 70.983H17.5611C18.0329 70.983 18.4152 70.5968 18.4152 70.1201C18.4152 69.6435 18.0329 69.2573 17.5611 69.2573ZM19.222 58.0651L15.0257 60.5903C14.6204 60.8344 14.4875 61.364 14.7291 61.7735C14.8889 62.0447 15.1728 62.1945 15.4643 62.1945C15.6126 62.1945 15.7635 62.1558 15.9003 62.0731L20.0965 59.5492C20.5018 59.3051 20.6348 58.7755 20.3931 58.3661C20.1515 57.9566 19.6273 57.8223 19.222 58.0664V58.0651ZM42.2335 69.2573H38.2252L33.5265 59.6861C33.3168 59.2599 32.8041 59.0842 32.3822 59.2961C31.959 59.5079 31.7864 60.0259 31.996 60.4521L36.93 70.5038C37.0745 70.7983 37.3711 70.983 37.6946 70.983H42.2335C42.7053 70.983 43.0875 70.5968 43.0875 70.1201C43.0875 69.6435 42.7053 69.2573 42.2335 69.2573ZM9.61999 19.2599C9.61999 15.6807 12.5019 12.7693 16.0447 12.7693C19.5876 12.7693 22.4695 15.6807 22.4695 19.2599C22.4695 22.8391 19.5876 25.7505 16.0447 25.7505C12.5019 25.7505 9.61999 22.8391 9.61999 19.2599ZM11.3281 19.2599C11.3281 21.8871 13.4442 24.0248 16.0447 24.0248C18.6453 24.0248 20.7613 21.8871 20.7613 19.2599C20.7613 16.6327 18.6453 14.495 16.0447 14.495C13.4442 14.495 11.3281 16.6327 11.3281 19.2599ZM59.7229 69.38L30.5065 51.8019C30.2367 51.6404 29.9018 51.6404 29.632 51.8019L28.1655 52.6841C27.7602 52.9282 27.6272 53.4578 27.8689 53.8672C28.1105 54.2767 28.6347 54.411 29.04 54.1669L30.0705 53.5469L56.1825 69.2573H52.5847C52.1129 69.2573 51.7306 69.6435 51.7306 70.1201C51.7306 70.5968 52.1129 70.983 52.5847 70.983H59.2856C59.6704 70.983 60.0067 70.7234 60.109 70.3488C60.2113 69.9742 60.0527 69.5777 59.7229 69.3787V69.38Z" fill="#464646"></path></svg> 