<?xml version="1.0" encoding="UTF-8"?> <svg xmlns="http://www.w3.org/2000/svg" width="84" height="61" viewBox="0 0 84 61" fill="none"><path d="M83.6674 53.9877C83.257 53.5751 82.5905 53.5751 82.1801 53.9877L78.7882 57.3985L69.4754 44.2845L43.7678 8.08144L48.1979 1.84185C48.5347 1.36568 48.4259 0.706097 47.9524 0.367488C47.4789 0.028878 46.8229 0.138221 46.4862 0.614391L42.4769 6.26141L38.4642 0.614391C38.1274 0.138221 37.468 0.028878 36.998 0.367488C36.5244 0.706097 36.4157 1.36921 36.7524 1.84185L41.1826 8.08144L15.475 44.2845L6.12706 57.4479L2.76672 54.0689C2.35633 53.6562 1.68987 53.6562 1.27948 54.0689C0.869081 54.4815 0.869081 55.1517 1.27948 55.5644L5.55181 59.8605C5.75876 60.0686 6.02534 60.1709 6.29543 60.1709C6.56552 60.1709 6.83561 60.0686 7.03905 59.8605C7.15481 59.7441 7.23548 59.603 7.2881 59.4549L15.475 47.9245V58.3227C15.475 59.2962 16.2607 60.0862 17.2288 60.0862H67.7181C68.6862 60.0862 69.4719 59.2962 69.4719 58.3227V47.9245L77.7956 59.6453C77.7956 59.6453 77.8201 59.67 77.8342 59.6877C77.8587 59.7194 77.8798 59.7512 77.9078 59.7794C77.9183 59.79 77.9324 59.797 77.9429 59.8111C77.9674 59.8323 77.9885 59.8499 78.013 59.8711C78.0516 59.9028 78.0937 59.9275 78.1358 59.9522C78.1604 59.9663 78.1849 59.9804 78.2095 59.991C78.2586 60.0122 78.3077 60.0298 78.3603 60.0439C78.3813 60.051 78.4024 60.058 78.4269 60.0651C78.5006 60.0827 78.5778 60.0933 78.6514 60.0933C78.7111 60.0933 78.7742 60.0862 78.8338 60.0757C78.8514 60.0757 78.8689 60.0686 78.8865 60.0616C78.9285 60.051 78.9706 60.0404 79.0127 60.0228C79.0338 60.0157 79.0548 60.0086 79.0724 59.9981C79.1109 59.9804 79.1495 59.9593 79.1881 59.9381C79.2057 59.9275 79.2232 59.9169 79.2407 59.9064C79.2477 59.9028 79.2548 59.8993 79.2583 59.8958C79.2828 59.8781 79.3004 59.857 79.3249 59.8358C79.346 59.8182 79.3705 59.8005 79.3916 59.7829L83.6639 55.4868C84.0743 55.0741 84.0743 54.4039 83.6639 53.9913L83.6674 53.9877ZM17.5796 57.9735V44.9617L41.4246 11.3864V30.5672L29.1724 57.9735H17.5831H17.5796ZM31.4769 57.9735L42.4734 33.3749L53.47 57.9735H31.4769ZM67.3673 57.9735H55.778L43.5257 30.5672V11.3864L67.3673 44.9617V57.9735Z" fill="#464646"></path></svg> 