<?xml version="1.0" encoding="UTF-8"?> <svg xmlns="http://www.w3.org/2000/svg" width="71" height="58" viewBox="0 0 71 58" fill="none"><path d="M63.271 56.1037C64.976 54.4132 65.1606 51.709 63.7046 49.8094C63.4995 49.5422 63.2505 49.2953 62.9195 49.0251C54.3742 42.1151 51.2572 41.3889 49.9888 41.6997L47.7096 39.4399C55.4259 38.0457 62.8463 35.2922 69.6017 31.2693C70.4395 30.7726 70.9404 29.8896 70.9404 28.9166C70.9404 27.9406 70.4395 27.0605 69.5987 26.5609C67.3694 25.2335 65.0697 24.0455 62.7115 22.997C62.691 22.9883 62.6705 22.9795 62.65 22.9708C54.2892 19.2704 45.1903 17.3359 35.939 17.3359C32.6462 17.3359 29.374 17.5828 26.1457 18.0649L23.1313 15.0761C23.4447 13.8184 22.7124 10.7279 15.7431 2.25807C15.4736 1.92985 15.2217 1.68296 14.9522 1.47963C13.0363 0.0360449 10.3089 0.219035 8.60689 1.90661C7.66653 2.83609 7.19488 4.06764 7.19488 5.3021C7.19488 6.42618 7.59036 7.55317 8.38425 8.4536C8.55123 8.64239 8.72993 8.79634 8.88226 8.92124C9.65272 9.56025 12.383 11.7881 15.1484 13.6238C18.4294 15.8023 20.5738 16.6649 21.8862 16.3018L24.0218 18.4193C19.0271 19.3343 14.1553 20.8214 9.5121 22.8517C9.43007 22.875 9.35391 22.9069 9.2836 22.9505C6.88435 24.0107 4.54662 25.2161 2.28506 26.5609C1.4443 27.0605 0.943358 27.9406 0.943358 28.9165C0.943358 29.8925 1.4443 30.7726 2.28506 31.2722C4.57885 32.6373 6.9488 33.8573 9.3832 34.9262C9.40077 34.9349 9.41836 34.9407 9.43593 34.9494C17.741 38.5947 26.7697 40.4972 35.9478 40.4972C39.1878 40.4972 42.4073 40.259 45.5828 39.7914L48.7584 42.94C48.7057 43.1317 48.6764 43.3408 48.6764 43.5674C48.6764 44.889 49.5845 46.8467 51.4594 49.6206C53.3108 52.3625 55.5577 55.0696 56.2022 55.8335C56.3311 55.9846 56.4864 56.1618 56.6738 56.3244C58.5809 57.98 61.4811 57.8813 63.2769 56.1037L63.271 56.1037ZM15.9247 12.0408C13.297 10.2748 10.7308 8.18347 10.0072 7.58221C9.90172 7.49507 9.7904 7.39922 9.70544 7.30337C8.64204 6.09796 8.70649 4.26806 9.84899 3.13526C10.9329 2.06056 12.6701 1.94147 13.8887 2.86223C14.044 2.98132 14.2022 3.13816 14.3809 3.35601C14.9756 4.07635 17.0467 6.63241 18.7839 9.20298C21.1714 12.7379 21.4234 14.0798 21.4234 14.4865C21.4234 14.5504 21.4175 14.5939 21.4117 14.6172C21.2623 14.6695 20.1608 14.8844 15.9218 12.0379L15.9247 12.0408ZM68.6935 28.0539C69.1329 28.3153 69.1827 28.7423 69.1827 28.9166C69.1827 29.0908 69.1359 29.5149 68.6935 29.7792C66.9124 30.8394 65.0815 31.8095 63.2125 32.6867L63.2125 25.1493C65.0815 26.0265 66.9124 26.9966 68.6935 28.0568L68.6935 28.0539ZM35.939 19.0786C44.7655 19.0786 53.4514 20.8882 61.4548 24.3534L61.4548 33.4768C56.5772 35.5884 51.4476 37.0843 46.1863 37.9325L43.0635 34.8361C44.7508 33.7266 45.8641 31.827 45.8641 29.6747L45.8641 28.3385C45.8641 24.9227 43.0605 22.143 39.6155 22.143L31.9695 22.143C31.4451 22.143 30.9413 22.2156 30.455 22.3347L27.7042 19.6073C30.4257 19.2587 33.1735 19.0786 35.939 19.0786ZM39.6155 34.1274L31.9695 34.1274C29.4941 34.1274 27.4786 32.129 27.4786 29.6747L27.4786 28.3385C27.4786 26.5871 28.5069 25.0709 29.995 24.3447L39.8498 34.1158C39.7707 34.1187 39.6946 34.1274 39.6155 34.1274ZM32.0164 23.8858L39.6155 23.8858C42.0909 23.8858 44.1064 25.8841 44.1064 28.3385L44.1064 29.6747C44.1064 31.3506 43.1689 32.8116 41.7862 33.5697L32.0193 23.8858L32.0164 23.8858ZM3.18149 29.7792C2.74206 29.5178 2.69226 29.0879 2.69226 28.9165C2.69226 28.7452 2.73913 28.3182 3.18149 28.0539C5.02706 26.9559 6.92537 25.9539 8.86468 25.0505L8.86468 32.7826C6.92537 31.8792 5.02706 30.8772 3.18149 29.7792ZM35.936 38.7545C27.1827 38.7545 18.5701 36.9768 10.6224 33.5668L10.6224 24.2663C15.3916 22.2214 20.3981 20.7633 25.5334 19.9239L28.7002 23.0638C26.9132 24.1559 25.7151 26.1078 25.7151 28.3356L25.7151 29.6717C25.7151 33.0876 28.5186 35.8673 31.9637 35.8673L39.6096 35.8673C40.216 35.8673 40.8019 35.7772 41.3585 35.6146L44.0068 38.2403C41.338 38.5773 38.6429 38.7486 35.9302 38.7486L35.936 38.7545ZM57.8222 55.0144C57.7255 54.9302 57.6289 54.8198 57.541 54.7153C56.9375 53.9978 54.8253 51.4563 53.0442 48.848C50.1499 44.6101 50.396 43.5354 50.4428 43.4047C50.604 43.367 51.7552 43.2537 55.9063 46.0102C58.5018 47.7326 61.0769 49.7862 61.8034 50.3758C62.026 50.5559 62.1842 50.7098 62.3014 50.8638C63.2271 52.0721 63.1099 53.7945 62.026 54.8692C60.8835 56.002 59.0379 56.063 57.8222 55.0115L57.8222 55.0144Z" fill="#464646"></path></svg> 