<?xml version="1.0" encoding="UTF-8"?> <svg xmlns="http://www.w3.org/2000/svg" width="98" height="134" viewBox="0 0 98 134" fill="none"><rect x="0.5" y="0.5" width="97" height="133" rx="45" stroke="#2F3E39"></rect><path d="M56.7021 85.5551L59.6667 85.6459L66.0503 77.6066C67.4756 75.9955 67.0387 75.5666 68.4232 77.247C70.71 80.0234 72.94 82.8469 75.2044 85.6413L78.3372 85.5781C75.5403 82.1336 72.8241 78.6159 69.9714 75.212C67.3383 72.0684 67.2995 72.402 64.7519 75.4181L56.7021 85.5551Z" fill="#2F3E39"></path><path d="M64.7116 58.8867L62.1098 55.6428C60.893 54.126 62.1814 51.8828 63.9805 54.116L66.1568 56.8161C67.284 58.1283 67.3691 58.1142 68.7138 56.6099L70.4596 54.3763C72.0238 52.4918 73.8651 54.3096 72.4921 56.006L69.9988 59.0884C68.7989 60.5711 68.771 60.1041 69.9545 61.5733L80.9668 75.235C82.0906 77.1517 80.076 78.0375 78.5945 76.1911L68.348 63.4232C67.5204 62.3889 67.281 62.4712 66.5649 63.3846L49.26 85.5786H45.7266L64.6757 61.6736C65.8069 60.2581 65.683 60.2405 64.7121 58.8862L64.7116 58.8867Z" fill="#2F3E39"></path><path d="M22.6402 73.0911C22.682 73.1212 22.7218 73.1543 22.7592 73.1919L28.8337 79.2027C29.2189 79.5834 29.2189 80.2049 28.8337 80.5861C28.449 80.9668 27.8204 80.9668 27.4362 80.5861L22.6402 75.8404V84.1435H20.663V75.9061L15.9571 80.563C15.5729 80.9432 14.9438 80.9432 14.5596 80.563C14.1744 80.1823 14.1744 79.5603 14.5596 79.1791L20.6112 73.1914C20.6282 73.1739 20.6456 73.1583 20.6635 73.1428V69.6516L15.8884 74.3762C15.5032 74.7579 14.8756 74.7579 14.4909 74.3762C14.1062 73.996 14.1062 73.3745 14.4909 72.9938L20.6117 66.9369C20.6287 66.9204 20.6461 66.9043 20.664 66.8888V63.3971L15.7968 68.2145C15.4121 68.5947 14.7836 68.5947 14.3994 68.2145C14.0147 67.8338 14.0147 67.2123 14.3994 66.8311L20.6122 60.6824C20.9014 60.3965 21.3289 60.3253 21.6862 60.4692C22.0445 60.3253 22.4715 60.3965 22.7607 60.6824L28.5585 66.4193C28.9437 66.8 28.9437 67.422 28.5585 67.8032C28.1743 68.1834 27.5457 68.1834 27.161 67.8032L22.6422 63.3309V66.8361C22.684 66.8662 22.7238 66.8993 22.7612 66.9364L28.7207 72.8333C29.1054 73.2145 29.1054 73.836 28.7207 74.2167C28.336 74.5974 27.7075 74.5974 27.3228 74.2167L22.6422 69.5854V73.0906L22.6402 73.0911Z" fill="#2F3E39"></path><path d="M39.7301 77.6202V67.3047L44.3569 71.8833C44.6909 72.2129 45.2348 72.2129 45.5683 71.8833C45.9017 71.5538 45.9007 71.0156 45.5683 70.685L39.9406 65.1142L39.7306 64.9396V60.7176L44.3973 65.3364C44.7302 65.6659 45.2746 65.6659 45.6076 65.3359C45.9375 65.0108 45.945 64.4721 45.616 64.1461L39.8944 58.6244C38.7537 57.6764 38.7109 57.6784 37.6817 58.7478L34.95 61.4269L32.0526 64.2941C31.7197 64.6236 31.7192 65.1623 32.0526 65.4924C32.3856 65.8219 32.9295 65.8219 33.263 65.4924L38.0177 60.7878V64.9767L32.0531 70.8791C31.7197 71.2087 31.7197 71.7484 32.0531 72.078C32.3861 72.407 32.93 72.4075 33.2634 72.078L38.0182 67.3729V77.6192H39.7311L39.7301 77.6202Z" fill="#2F3E39"></path><path d="M13.6431 84.1442H84.4641C84.9418 84.1442 85.3325 84.563 85.3325 85.0721C85.3325 85.5818 84.9403 86.0001 84.4641 86.0001H13.6431C13.1663 86.0001 12.7751 85.5823 12.7751 85.0721C12.7751 84.562 13.1658 84.1442 13.6431 84.1442Z" fill="#2F3E39"></path><path d="M42.0781 41H55.4699C55.9476 41 56.3383 41.4183 56.3383 41.928C56.3383 42.4371 55.9461 42.8554 55.4699 42.8554H42.0781C41.6024 42.8554 41.2102 42.4386 41.2102 41.928C41.2102 41.4178 41.6009 41 42.0781 41Z" fill="#2F3E39"></path><path d="M29.5154 46.6085H55.1393C55.617 46.6085 56.0077 47.0269 56.0077 47.5355C56.0077 48.0451 55.6145 48.4635 55.1393 48.4635H29.5154C29.0401 48.4635 28.6475 48.0456 28.6475 47.5355C28.6475 47.0254 29.0381 46.6085 29.5154 46.6085Z" fill="#2F3E39"></path><path d="M60.355 46.6085H68.0325C68.5103 46.6085 68.9009 47.0269 68.9009 47.5355C68.9009 48.0451 68.5083 48.4635 68.0325 48.4635H60.355C59.8797 48.4635 59.4871 48.0456 59.4871 47.5355C59.4871 47.0254 59.8777 46.6085 60.355 46.6085Z" fill="#2F3E39"></path><path d="M58.972 53.3375H33.3482C32.8709 53.3375 32.4802 53.7554 32.4802 54.2645C32.4802 54.7741 32.8729 55.1915 33.3482 55.1915H58.972C59.4473 55.1915 59.84 54.7746 59.84 54.2645C59.84 53.7544 59.4498 53.3375 58.972 53.3375Z" fill="#2F3E39"></path><path d="M29.0767 53.3375H21.3992C20.9214 53.3375 20.5312 53.7554 20.5312 54.2645C20.5312 54.7741 20.9234 55.1915 21.3992 55.1915H29.0767C29.552 55.1915 29.9446 54.7746 29.9446 54.2645C29.9446 53.7544 29.5539 53.3375 29.0767 53.3375Z" fill="#2F3E39"></path><path d="M30.4466 58.8517H26.5474C26.0711 58.8517 25.6794 59.27 25.6794 59.7797C25.6794 60.2893 26.0721 60.7076 26.5474 60.7076H30.4466C30.9219 60.7076 31.3145 60.2898 31.3145 59.7797C31.3145 59.2695 30.9224 58.8517 30.4466 58.8517Z" fill="#2F3E39"></path><path d="M61.0189 58.5642H48.6658C48.1885 58.5642 47.7979 58.9825 47.7979 59.4922C47.7979 60.0013 48.19 60.4191 48.6658 60.4191H61.0189C61.4941 60.4191 61.8868 60.0023 61.8868 59.4922C61.8868 58.9815 61.4956 58.5642 61.0189 58.5642Z" fill="#2F3E39"></path><path d="M56.4369 65.3875H47.4844C47.0066 65.3875 46.616 65.8058 46.616 66.3149C46.616 66.8245 47.0086 67.2429 47.4844 67.2429H56.4369C56.9127 67.2429 57.3049 66.8251 57.3049 66.3149C57.3049 65.8048 56.9142 65.3875 56.4369 65.3875Z" fill="#2F3E39"></path><path d="M80.5476 58.5642H74.3342C73.8565 58.5642 73.4658 58.9825 73.4658 59.4922C73.4658 60.0013 73.8585 60.4191 74.3342 60.4191H80.5476C81.0229 60.4191 81.4155 60.0023 81.4155 59.4922C81.4155 58.9815 81.0249 58.5642 80.5476 58.5642Z" fill="#2F3E39"></path><path d="M82.4121 65.3875H77.2852C76.8079 65.3875 76.4167 65.8058 76.4167 66.3149C76.4167 66.8245 76.8094 67.2429 77.2852 67.2429H82.4121C82.8879 67.2429 83.2801 66.8251 83.2801 66.3149C83.2801 65.8048 82.8879 65.3875 82.4121 65.3875Z" fill="#2F3E39"></path><path d="M42.4449 75.7814H35.2158C34.7396 75.7814 34.3479 76.1997 34.3479 76.7093C34.3479 77.219 34.7406 77.6363 35.2158 77.6363H42.4449C42.9207 77.6363 43.3124 77.2195 43.3124 76.7093C43.3124 76.1992 42.9197 75.7814 42.4449 75.7814Z" fill="#2F3E39"></path><path d="M49.6831 75.7291H47.3421C46.8658 75.7291 46.4741 76.1475 46.4741 76.6571C46.4741 77.1662 46.8668 77.5841 47.3421 77.5841H49.6831C50.1588 77.5841 50.551 77.1662 50.551 76.6571C50.551 76.1465 50.1583 75.7291 49.6831 75.7291Z" fill="#2F3E39"></path><path d="M44.2193 80.5717H32.1489C31.6732 80.5717 31.281 80.99 31.281 81.4986C31.281 82.0083 31.6737 82.4266 32.1489 82.4266H44.2193C44.6946 82.4266 45.0873 82.0088 45.0873 81.4986C45.0873 80.9885 44.6936 80.5717 44.2193 80.5717Z" fill="#2F3E39"></path></svg> 