<?xml version="1.0" encoding="UTF-8"?> <svg xmlns="http://www.w3.org/2000/svg" width="350" height="52.85" viewBox="0 0 400 60.398"><path d="m131.669,33.829c3.676-3.325,6.327-5.8,7.953-7.426,1.641-1.64,2.989-2.988,4.043-4.043,1.069-1.069,1.708-1.757,1.913-2.065v-1.428l.219-.176c1.113.059,2.329.088,3.648.088.294,0,1.451-.021,3.472-.066l.22.198v1.033l-.176.176c-1.362,0-2.293.081-2.79.242-.499.147-1.23.616-2.198,1.407-.952.777-2.051,1.736-3.296,2.879l-8.9,8.13,13.228,12.239c2.125,1.978,3.311,3.054,3.56,3.231.264.175.798.278,1.605.308l.153.175v.923l-.153.175c-.85-.058-1.729-.088-2.637-.088-.542,0-1.729.03-3.56.088-1.332-1.26-2.505-2.373-3.516-3.34-.996-.966-5.258-4.893-12.788-11.777v4.68l.021,4.285c.015,1.656.059,2.725.131,3.208.073.483.176.805.308.966.147.161.418.301.814.418.396.103,1.369.184,2.923.242l.175.131v1.099l-.175.175c-.073,0-1.363-.044-3.868-.131-1.04-.03-1.853-.044-2.44-.044-.454,0-2.549.058-6.284.175l-.176-.175v-1.099l.176-.131c1.362-.058,2.27-.131,2.725-.22.454-.088.754-.198.9-.329.161-.147.285-.446.374-.901.102-.454.161-1.465.175-3.033l.022-4.636v-10.174l-.044-4.285c-.015-1.67-.059-2.746-.133-3.231-.058-.483-.161-.805-.308-.966-.131-.161-.396-.293-.791-.396-.394-.103-1.369-.184-2.922-.242l-.176-.154v-1.099l.176-.154,2.746.088c1.802.059,2.981.088,3.537.088.499,0,2.601-.059,6.307-.176l.175.154v1.099l-.175.154c-1.011.03-1.795.073-2.352.131-.541.058-.937.168-1.187.329-.249.161-.417.542-.506,1.143-.072.586-.109,1.407-.109,2.461l-.044,5.054v4.616Zm32.973,16.085l-.198-.175v-1.143l.198-.175c1.069-.014,1.757-.066,2.065-.154.308-.103.579-.293.812-.571.25-.293.74-1.23,1.473-2.813l2.307-5.009,5.977-13.536c1.127-2.652,2.248-5.303,3.362-7.955h1.428l9.382,22.061,1.253,2.944c.366.835.784,1.743,1.253,2.725.483.982.812,1.56.989,1.736.191.175.417.315.681.418.278.088.886.139,1.824.154l.175.175v1.143l-.175.175c-1.553-.131-2.952-.198-4.197-.198-2.431.073-4.864.14-7.295.198l-.176-.175v-1.143l.176-.175c1.64-.03,2.666-.095,3.076-.198.411-.117.616-.373.616-.769,0-.322-.103-.747-.308-1.274l-2.702-6.702h-12.722l-2.396,5.625c-.424,1.011-.637,1.75-.637,2.219,0,.366.198.637.593.814s1.392.271,2.989.285l.198.175v1.143l-.176.175c-1.889-.117-3.544-.175-4.966-.175-1.612,0-3.238.058-4.878.175v-.002Zm10.02-12.327h11.118l-5.515-13.249-5.603,13.249Zm74.371-18.831l.198.175v1.076l-.176.154c-1.611.044-2.615.124-3.01.242-.38.117-.651.315-.812.593-.161.264-.257.791-.285,1.582-.015.791-.052,3.025-.11,6.702v10.13c0,1.465.022,3.121.066,4.966.044,1.846.131,2.923.263,3.231.147.293.403.513.77.66.366.131,1.406.22,3.119.264l.176.154v1.076l-.198.175c-2.387-.131-4.468-.198-6.241-.198-1.201,0-3.245.066-6.13.198l-.198-.175v-1.055l.175-.175c1.612-.044,2.608-.124,2.989-.242.394-.117.674-.308.835-.571.161-.278.256-.821.285-1.626s.065-3.032.11-6.68v-16.128l-7.582,15.864c-1.904,3.97-3.567,7.706-4.988,11.207h-.856c-.821-1.89-1.495-3.399-2.022-4.526l-10.504-21.82v15.36c0,1.435.015,3.091.045,4.966.044,1.86.139,2.937.285,3.231.146.293.403.513.769.66s1.407.234,3.121.264l.175.175v1.055l-.198.198-1.406-.066c-1.451-.073-2.695-.11-3.735-.11-.469,0-2.219.058-5.252.175l-.175-.175v-1.055l.175-.198c1.612-.03,2.608-.103,2.988-.22.381-.117.653-.315.814-.593.175-.278.271-.798.285-1.56.03-.761.066-3.01.11-6.746v-10.064c0-1.333-.022-2.952-.066-4.857-.028-1.92-.117-3.025-.263-3.318-.133-.308-.381-.534-.747-.681-.366-.147-1.407-.234-3.121-.264l-.175-.175v-1.055l.198-.198c1.01.073,2.373.11,4.087.11,1.611,0,3.017-.037,4.218-.11,1.23,2.842,2.41,5.413,3.539,7.713l8.328,17.095,7.515-15.667c2.036-4.234,3.405-7.281,4.108-9.141,1.407.073,2.791.11,4.153.11,1.23,0,2.681-.037,4.351-.11h0Zm11.549-.066c3.691.117,6.043.176,7.053.176,1.377,0,2.923-.037,4.636-.11,1.817-.059,2.937-.088,3.362-.088,2.051,0,3.743.212,5.076.637,1.348.425,2.461,1.201,3.341,2.329.879,1.127,1.318,2.49,1.318,4.087,0,1.318-.308,2.594-.923,3.824-.616,1.23-1.473,2.279-2.571,3.142-1.099.865-2.212,1.486-3.341,1.868-1.127.366-2.3.549-3.515.549-.908,0-1.92-.103-3.033-.308l-.373-1.341.198-.22c1.098.249,1.992.374,2.68.374,1.92,0,3.458-.63,4.615-1.89,1.171-1.274,1.757-2.9,1.757-4.878,0-1.992-.608-3.581-1.824-4.768-1.201-1.187-3.025-1.78-5.471-1.78-1.333,0-2.798.249-4.395.747-.131,1.129-.198,3.852-.198,8.174v10.174l.022,4.285c.014,1.656.058,2.725.131,3.208s.175.805.308.966c.146.161.417.301.812.418.396.103,1.37.184,2.923.242l.176.131v1.099l-.176.175c-3.735-.117-5.837-.175-6.306-.175-.499,0-2.594.058-6.285.175l-.175-.175v-1.099l.175-.131c1.363-.058,2.271-.131,2.725-.22.455-.088.754-.198.901-.329.161-.147.285-.446.373-.901.103-.454.161-1.465.176-3.033l.021-4.636v-10.174l-.044-4.285c-.014-1.67-.058-2.746-.131-3.231-.059-.483-.161-.805-.308-.966-.131-.161-.396-.293-.791-.396s-1.37-.184-2.923-.242l-.175-.154v-1.099l.175-.154h0Zm36.204,0l2.746.088c1.802.059,2.982.088,3.539.088.497,0,2.599-.059,6.306-.176l.175.154v1.099l-.175.154c-1.011.03-1.795.073-2.352.131-.541.058-.937.168-1.187.329-.249.161-.417.542-.504,1.143-.073.586-.11,1.407-.11,2.461l-.044,5.054v10.174l.021,4.285c.015,1.656.059,2.725.133,3.208s.175.805.307.966c.147.161.418.301.814.418.396.103,1.37.184,2.923.242l.175.131v1.099l-.175.175c-.073,0-1.363-.044-3.868-.131-1.04-.03-1.853-.044-2.438-.044-.455,0-2.55.058-6.285.175l-.175-.175v-1.099l.175-.131c1.362-.058,2.27-.131,2.725-.22.454-.088.754-.198.9-.329.162-.147.287-.446.374-.901.102-.454.161-1.465.175-3.033l.022-4.636v-10.174l-.044-4.285c-.015-1.67-.059-2.746-.133-3.231-.058-.483-.161-.805-.307-.966-.133-.161-.396-.293-.791-.396s-1.37-.184-2.923-.242l-.175-.154v-1.099l.175-.154v.002Zm24.316,31.203l-.198-.198v-1.01l.198-.176c.893-.014,1.603-.066,2.13-.154.542-.088.887-.234,1.033-.439.162-.205.264-.534.308-.989.059-.454.11-1.479.154-3.077.059-1.596.088-2.739.088-3.428v-17.754c0-.747-.139-1.297-.417-1.648-.264-.366-.63-.593-1.099-.681-.469-.103-1.267-.161-2.395-.175l-.176-.175v-1.033l.176-.198c2.022.073,3.347.11,3.977.11,1.479,0,2.695-.037,3.647-.11l7.01,9.097,10.305,12.92c1.246,1.568,2.513,3.054,3.801,4.461v-17.007c0-.527-.03-1.648-.088-3.362-.044-1.729-.103-2.82-.176-3.274-.072-.469-.205-.784-.396-.945-.175-.161-.52-.278-1.033-.352-.497-.088-1.178-.14-2.043-.154l-.176-.175v-1.011l.176-.198c1.187.073,2.878.11,5.076.11,2.007,0,3.464-.037,4.372-.11l.198.198v1.011l-.175.175c-.968.014-1.714.073-2.242.176-.527.088-.856.242-.989.462-.131.22-.226.542-.285.966-.044.425-.095,1.435-.154,3.033-.044,1.596-.065,2.746-.065,3.45v10.437l.021,6.043c.03,1.978.059,3.963.088,5.954-.732-.249-1.999-.557-3.801-.923l-1.56-1.846-4.68-5.713-14.898-18.612v16.853c0,.674.021,1.875.065,3.604.059,1.729.126,2.776.198,3.142.073.366.169.623.287.769.117.131.366.256.747.373.396.117,1.201.184,2.417.198l.175.176v1.033l-.175.176c-.763-.103-1.993-.154-3.693-.154-2.183,0-4.094.051-5.734.154h0Zm45.915.021l-.198-.175v-1.143l.198-.175c1.069-.014,1.759-.066,2.067-.154.307-.103.578-.293.812-.571.249-.293.74-1.23,1.472-2.813l2.308-5.009,5.976-13.536c1.129-2.652,2.249-5.303,3.362-7.955h1.428l9.383,22.061,1.253,2.944c.366.835.784,1.743,1.252,2.725.484.982.814,1.56.989,1.736.191.175.418.315.682.418.278.088.886.139,1.824.154l.175.175v1.143l-.175.175c-1.554-.131-2.952-.198-4.197-.198-2.432.073-4.864.14-7.295.198l-.176-.175v-1.143l.176-.175c1.64-.03,2.666-.095,3.075-.198.411-.117.616-.373.616-.769,0-.322-.103-.747-.308-1.274l-2.702-6.702h-12.722l-2.396,5.625c-.425,1.011-.637,1.75-.637,2.219,0,.366.198.637.593.814.396.175,1.391.271,2.988.285l.198.175v1.143l-.175.175c-1.89-.117-3.546-.175-4.966-.175-1.612,0-3.238.058-4.879.175v-.002Zm10.02-12.327h11.119l-5.515-13.249-5.604,13.249ZM2.174,36.527c-.515-.512-.515-1.345,0-1.857l8.315-8.253c.387-.384.959-.48,1.438-.287.48-.193,1.052-.098,1.438.287l7.759,7.7c.515.512.515,1.345,0,1.857-.514.51-1.355.51-1.87,0l-6.048-6.003v4.705c.056.04.109.085.159.135l7.976,7.914c.515.512.515,1.345,0,1.857-.515.51-1.356.51-1.871,0l-6.265-6.216v4.705h-.002c.056.041.109.085.159.136l8.13,8.067c.515.512.515,1.345,0,1.857s-1.356.512-1.87,0l-6.419-6.369v11.144h-2.647v-11.056l-6.298,6.25c-.514.51-1.356.51-1.87,0-.515-.51-.515-1.345,0-1.857l8.099-8.036c.023-.024.046-.044.07-.065v-4.686l-6.391,6.342c-.515.513-1.356.513-1.87,0-.515-.51-.515-1.344,0-1.856l8.191-8.13c.023-.022.046-.044.07-.065v-4.686l-6.515,6.466c-.515.51-1.356.51-1.87,0h.002Zm40.147-3.863c.445.443,1.175.443,1.62,0,.442-.436.451-1.159.012-1.598l-7.657-7.411c-1.527-1.273-1.583-1.27-2.962.166l-3.656,3.595-3.877,3.849c-.445.442-.446,1.165,0,1.608.445.442,1.174.442,1.62,0l6.364-6.314v5.622l-7.983,7.923c-.446.442-.446,1.166,0,1.609.445.442,1.174.442,1.62,0l6.364-6.316v11.286h-3.749c-.637,0-1.162.561-1.162,1.246s.526,1.243,1.162,1.243h9.675c.637,0,1.161-.559,1.161-1.243s-.526-1.246-1.161-1.246h-3.634v-11.377l6.192,6.145c.446.442,1.175.442,1.621,0,.446-.443.445-1.165,0-1.608l-7.532-7.477-.281-.234v-5.667l6.246,6.2h-.004Zm54.787,26.488c0,.684-.525,1.246-1.162,1.246H1.162c-.638,0-1.162-.561-1.162-1.246s.523-1.246,1.162-1.246h44.462l23.839-30.159c1.513-1.9,1.348-1.923.049-3.741h0l-3.482-4.353c-1.628-2.036.096-5.046,2.504-2.049l2.913,3.624c1.509,1.761,1.622,1.742,3.422-.277l2.337-2.999c2.094-2.53,4.558-.09,2.72,2.187l-3.337,4.137c-1.606,1.99-1.644,1.363-.059,3.335l14.738,18.336c1.504,2.572-1.193,3.761-3.175,1.284l-13.714-17.136c-1.107-1.388-1.428-1.278-2.386-.052l-21.664,27.863h9.963l9.274-11.712c3.409-4.048,3.462-4.495,6.986-.277,3.29,3.938,6.448,7.984,9.653,11.988h9.743c.639,0,1.162.563,1.162,1.246v.002Zm-32.754-1.246h17.587c-2.481-3.092-4.948-6.195-7.463-9.257-1.853-2.255-1.268-1.679-3.176.483l-6.948,8.774ZM39.219,2.49h17.924c.637,0,1.162-.561,1.162-1.245s-.523-1.246-1.162-1.246h-17.924c-.638,0-1.162.561-1.162,1.246s.525,1.245,1.162,1.245Zm-16.814,7.527h34.295c.636,0,1.163-.561,1.163-1.246s-.523-1.245-1.163-1.245H22.405c-.638,0-1.162.559-1.162,1.245s.526,1.246,1.162,1.246Zm41.275,0h10.276c.637,0,1.162-.561,1.162-1.246s-.522-1.245-1.162-1.245h-10.276c-.638,0-1.162.559-1.162,1.245s.526,1.246,1.162,1.246Zm-37.306,7.786c0,.684.526,1.245,1.162,1.245h34.295c.636,0,1.162-.559,1.162-1.245s-.522-1.245-1.162-1.245H27.535c-.638,0-1.162.561-1.162,1.245Zm-14.83,1.245h10.276c.636,0,1.162-.559,1.162-1.245s-.523-1.245-1.162-1.245h-10.276c-.639,0-1.162.561-1.162,1.245s.525,1.245,1.162,1.245Zm12.109,4.912h-5.219c-.637,0-1.162.561-1.162,1.246s.526,1.246,1.162,1.246h5.219c.636,0,1.162-.561,1.162-1.246s-.525-1.246-1.162-1.246Zm42.079.86c0-.686-.523-1.246-1.162-1.246h-16.533c-.638,0-1.162.561-1.162,1.246s.525,1.245,1.162,1.245h16.533c.636,0,1.162-.559,1.162-1.245Zm-6.132,9.158c0-.684-.523-1.245-1.162-1.245h-11.982c-.639,0-1.162.561-1.162,1.245s.526,1.246,1.162,1.246h11.982c.637,0,1.162-.561,1.162-1.246Zm22.791-7.913h8.316c.636,0,1.162-.559,1.162-1.245s-.522-1.246-1.162-1.246h-8.316c-.639,0-1.162.561-1.162,1.246s.526,1.245,1.162,1.245Zm2.788,7.913c0,.684.526,1.246,1.162,1.246h6.862c.637,0,1.162-.561,1.162-1.246s-.525-1.245-1.162-1.245h-6.862c-.638,0-1.162.561-1.162,1.245Zm-38.913,12.635c-.637,0-1.162.561-1.162,1.246s.526,1.245,1.162,1.245h3.134c.637,0,1.162-.561,1.162-1.245s-.526-1.246-1.162-1.246c0,0-3.134,0-3.134,0Zm-20.335,8.99h16.154c.636,0,1.162-.561,1.162-1.246s-.527-1.245-1.162-1.245h-16.154c-.637,0-1.162.561-1.162,1.245s.526,1.246,1.162,1.246Z" fill="#ffffff"></path></svg> 